<svg viewBox="0 0 1440 265" fill="none" xmlns="http://www.w3.org/2000/svg" preserveAspectRatio="none">
<g filter="url(#filter0_i_55_159)">
<path d="M760.5 50.9253C464.385 50.7452 -39 0.563599 -39 0.563599V263.564C-39 263.564 464.887 200.767 760.5 200.767C1073 200.767 1479.5 263.564 1479.5 263.564V0.563599C1479.5 0.563599 1058.76 51.1067 760.5 50.9253Z" fill="#0F5B81"/>
</g>
<path d="M760.5 50.9253C464.385 50.7452 -39 0.563599 -39 0.563599V263.564C-39 263.564 464.887 200.767 760.5 200.767C1073 200.767 1479.5 263.564 1479.5 263.564V0.563599C1479.5 0.563599 1058.76 51.1067 760.5 50.9253Z" stroke="black"/>
<defs>
<filter id="filter0_i_55_159" x="-39.5" y="0" width="1519.5" height="268.147" filterUnits="userSpaceOnUse" color-interpolation-filters="sRGB">
<feFlood flood-opacity="0" result="BackgroundImageFix"/>
<feBlend mode="normal" in="SourceGraphic" in2="BackgroundImageFix" result="shape"/>
<feColorMatrix in="SourceAlpha" type="matrix" values="0 0 0 0 0 0 0 0 0 0 0 0 0 0 0 0 0 0 127 0" result="hardAlpha"/>
<feOffset dy="4"/>
<feGaussianBlur stdDeviation="35.5"/>
<feComposite in2="hardAlpha" operator="arithmetic" k2="-1" k3="1"/>
<feColorMatrix type="matrix" values="0 0 0 0 0 0 0 0 0 0 0 0 0 0 0 0 0 0 0.25 0"/>
<feBlend mode="normal" in2="shape" result="effect1_innerShadow_55_159"/>
</filter>
</defs>
</svg>
