<svg width="655" height="655" viewBox="0 0 655 655" fill="none" xmlns="http://www.w3.org/2000/svg">
<path d="M277.865 409.155C240.953 398.424 208.523 376.001 185.449 345.256C162.376 314.511 149.907 277.107 149.917 238.667V2L504.917 2V268.25M149.917 61.1667H2L2 179.5C2 253.725 54.9837 297.833 120.333 297.833H149.917M565.089 294.431C615.618 282.746 652.833 241.714 652.833 179.5V61.1667L504.917 61.1667M268.25 534.5H120.333V652.833H460.542M460.542 652.833C409.543 652.833 360.633 632.574 324.571 596.512C288.509 560.451 268.25 511.541 268.25 460.542C268.25 409.543 288.509 360.633 324.571 324.571C360.633 288.509 409.543 268.25 460.542 268.25C511.541 268.25 560.451 288.509 596.512 324.571C632.574 360.633 652.833 409.543 652.833 460.542C652.833 511.541 632.574 560.451 596.512 596.512C560.451 632.574 511.541 652.833 460.542 652.833ZM564.083 386.583L430.958 519.708L357 445.75M274.344 428.71C254.724 438.555 238.23 453.664 226.705 472.346C215.18 491.029 209.079 512.549 209.083 534.5" stroke="#09A1CB" stroke-width="10"/>
</svg>
