<svg width="60" height="60" viewBox="0 0 60 60" fill="none" xmlns="http://www.w3.org/2000/svg">
<path d="M29.8457 29.407L27.8457 26.907L24.3457 29.907H20.697L13.8458 36.9071C13.8458 36.9071 9.34579 30.9071 3.34579 35.4071C0.825368 37.6453 0.353444 40.8848 1.84579 43.9071C4.3457 48.9701 9.34579 47.9071 9.34579 47.9071C9.34579 47.9071 7.8457 52.3593 11.3458 55.9071C14.3658 58.9684 19.1012 59.2293 22.3458 56.4071C27.3457 52.0582 23.3458 45.4071 23.3458 45.4071L33.5784 35.4071M29.8457 29.407L32.3457 22.407L27.8457 22.6029L36.8458 13.4071C36.8458 13.4071 31.3457 6.82892 37.3458 2.40714C40.3489 0.194013 44.3441 0.639791 46.8458 3.40714C50.0096 6.90698 48.3458 10.4071 48.3458 10.4071C48.3458 10.4071 52.8639 8.90714 56.3458 12.9071C59.038 16 59.1106 20.379 56.3458 23.4071C51.3241 28.9071 45.3458 23.9071 45.3458 23.9071L33.5784 35.4071M29.8457 29.407L35.3457 26.407L33.5784 35.4071M38.3457 23.4071L39.8457 21.907M26.8457 36.9071L29.3457 34.407M21.8457 16.407V18.407M26.8457 17.907L28.3457 16.407M14.8457 21.407V25.907L20.3457 24.907L14.8457 21.407Z" stroke="#09A1CB" stroke-width="2" stroke-linecap="square"/>
</svg>
