<svg width="44" height="40" viewBox="0 0 44 40" fill="none" xmlns="http://www.w3.org/2000/svg">
<path d="M1.94492 19.855C1.74155 19.657 1.47511 19.5255 1.18801 19.5027C0.901037 19.4798 0.619156 19.5657 0.400798 19.7443C0.182441 19.923 0.042458 20.1823 0.00807082 20.4681C-0.026452 20.754 0.0496843 21.0412 0.203517 21.2798C0.203517 21.2798 0.203517 21.2798 0.203517 21.2798C0.809885 22.2183 1.42109 23.1528 2.03713 24.0834C5.36383 29.1088 8.83159 34.0187 12.4404 38.8132C13.6016 40.3544 15.5334 40.2264 16.7651 38.741C19.3203 35.6629 21.8111 32.5357 24.2375 29.3593C30.3037 21.4181 35.9676 13.1695 41.2292 4.61364C41.8139 3.66299 42.3935 2.70854 42.9682 1.7503C43.114 1.50674 43.1805 1.21716 43.1365 0.932541C43.0925 0.64803 42.944 0.393552 42.7198 0.222287C42.4956 0.0510223 42.211 -0.0253821 41.9249 0.00707889C41.6388 0.0394335 41.3769 0.179757 41.1802 0.384462C41.1802 0.384462 41.1802 0.384462 41.1802 0.384462C40.4069 1.19094 39.6385 2.00122 38.875 2.81528C32.0042 10.1419 25.5357 17.7758 19.4695 25.7171C17.043 28.8935 14.681 32.119 12.3833 35.3938L16.708 35.3215C12.7231 30.8348 8.59706 26.4634 4.32998 22.2075C3.5398 21.4194 2.74478 20.6352 1.94492 19.855Z" fill="black"/>
</svg>
