<svg xmlns="http://www.w3.org/2000/svg" viewBox="0 0 256 351.96"><defs><style>.cls-1{fill:#445665;fill-rule:evenodd;}</style></defs><g id="Шар_2" data-name="Шар 2"><g id="Шар_1-2" data-name="Шар 1"><g id="Doctor_male_" data-name="Doctor (male)"><path class="cls-1" d="M156.5,108a5.51,5.51,0,1,0,5.5,5.5A5.5,5.5,0,0,0,156.5,108Z"/><path class="cls-1" d="M147,95h19a4,4,0,0,0,0-8H147a4,4,0,0,0,0,8Z"/><path class="cls-1" d="M230,294.28H219v-11a4,4,0,1,0-8,0v11H200a4,4,0,0,0,0,8h11v11a4,4,0,0,0,8,0v-11h11a4,4,0,0,0,0-8Z"/><path class="cls-1" d="M116,91a4,4,0,0,0-4-4H93a4,4,0,0,0,0,8h19A4,4,0,0,0,116,91Z"/><path class="cls-1" d="M155.38,149.2a4,4,0,1,0-6.8-4.2,23,23,0,0,1-39.22,0,4,4,0,1,0-6.81,4.2,30.86,30.86,0,0,0,52.83,0Z"/><path class="cls-1" d="M215.64,226.31l-16.26-4.49a12.16,12.16,0,0,0-.5-6,11.87,11.87,0,0,0-10.34-8.06l-8.82-.94c-2.93-.07-3.75.92-4.43,2.12V185.11a72.77,72.77,0,0,0,27.51-49.94h2.31a19,19,0,0,0,19.08-18.9v-2a16.85,16.85,0,0,0-11.35-15.91V50.6c.3-21.69-16.87-39.4-38.35-40.69-.1-.08-1.43-1.19-2.11-1.69-4.82-3.49-8.53-4.48-13.35-5.67,0,0-10.07-2.2-16.36-2.49C135-.29,123,1,122.78,1.05A120.66,120.66,0,0,0,95.37,7.72C92,8.89,88,10.55,83.76,12.34l-4.65,1.95c-5.92,2.58-12,5.17-18,7.36A54.86,54.86,0,0,1,46.2,24.93h-.08c-2.78.29-4.77.5-6.06,2.48a4.34,4.34,0,0,0-.51,3.68c.71,2.19,4.52,7.76,11.85,13.73a19.49,19.49,0,0,0-5,12.93V98.51a16.83,16.83,0,0,0-10.94,15.77v2a19,19,0,0,0,19.07,18.9h2.31a72,72,0,0,0,27.51,49.94v23.78c-.9-1.59-2.4-2.17-4.52-1.89l-9.33,1.1a12,12,0,0,0-10.65,13l-19.37,5.28A54.84,54.84,0,0,0,0,279.13V340A12,12,0,0,0,12.05,352H244A12,12,0,0,0,256,340V279A54.92,54.92,0,0,0,215.64,226.31ZM49.9,32.49a64.79,64.79,0,0,0,13.85-3.38c5.9-2.21,19.12-7.88,19.5-8,5.4-2.31,10.5-4.49,14.63-5.89,8.74-3,15.36-5,25.8-6.27,7.13-.89,11.25-1.39,18.28-1,8.81.39,14.22,1.14,25.39,6.76,3.1,2.23,7.63,8.46,7.63,8.46a41,41,0,0,1,4.52,9,4,4,0,0,0,5.12,2.48,4,4,0,0,0,2.51-5.07,56.23,56.23,0,0,0-5-10.15A32.92,32.92,0,0,1,204.9,50.5v40l-7.43-.07c-2.81,0-4.82-2.79-4.92-5.47a41.38,41.38,0,0,0-2.81-14.43A64.45,64.45,0,0,0,178.2,52.69c-1.81-2.29-2.82-2.89-4.82-2.29-.2.1-18.58,5.37-31.33,7.86-11.44,2.29-19.17,3.19-32.12,2.39-11.75-.7-18.67-1.89-29.11-7.06-2.31-1.2-7.94-3.79-13.16-7.07L58,40.05A55.28,55.28,0,0,1,49.9,32.49ZM67.56,55.77V86.52a4,4,0,0,1-4,4h-9V57.86a11.42,11.42,0,0,1,3.42-8.15C58.18,49.85,67,55.42,67.56,55.77Zm-3,72.44v-6a4,4,0,0,0-8,0v5h-2a11,11,0,0,1-11-10.94v-2a9,9,0,0,1,9-9,4,4,0,0,0,4-4,3.69,3.69,0,0,0-1.41-3h8.34a12,12,0,0,0,12-11.94V59.85c.22.13,1.36.67,1.71.9,11.55,5.67,19.88,7.16,32.13,7.86,3.21.2,6.22.3,8.93.3A116.65,116.65,0,0,0,143.46,66c10.24-2,23.59-5.67,29.21-7.26,2.41,2.78,6.83,8.26,9.34,14.62a35.42,35.42,0,0,1,2.21,11.75c.2,7.26,6,13.13,12.95,13.13h7.43a3.86,3.86,0,0,0-1.51,3.08,4,4,0,0,0,4,4,9,9,0,0,1,9,9v2a11,11,0,0,1-11,10.94h-2v-5a4,4,0,0,0-8,0v6c0,35.61-29.31,64.66-65.25,64.66S64.55,163.82,64.55,128.21Zm64.35,114a47.94,47.94,0,0,1-36.54-17V190.59a73.58,73.58,0,0,0,74.89,0v32.33A48,48,0,0,1,128.9,242.22Zm34.44-4.88-30,91.54a4,4,0,0,1-3.81,2.78,3.85,3.85,0,0,1-3.82-2.68L94.27,237.64a53.34,53.34,0,0,0,69.07-.3ZM12.05,344a4,4,0,0,1-4-4V279.13a46.93,46.93,0,0,1,34.64-45.06l20.68-5.68,6.72,7.27a3.87,3.87,0,0,1-.1,5.47l-5.42,5.38a11.83,11.83,0,0,0-2.21,13.91L77.9,290.28H58v-5.87a4,4,0,0,0-8,0v5.87H30.22a8,8,0,0,0-8,8V325.1a8,8,0,0,0,8,7.95H77.4a8,8,0,0,0,8-7.95V304.71L105.91,344ZM77.4,298.24V325.1H30.22V298.24Zm37.45,45.47L69.37,256.55a4.07,4.07,0,0,1,.7-4.68l5.42-5.36A11.78,11.78,0,0,0,75.8,230l-7-7.56a3.74,3.74,0,0,1-.7-3.87A4,4,0,0,1,71.38,216l6.62-.8,1.21,3.49L118,331.47a11.77,11.77,0,0,0,11.44,8h.11a11.73,11.73,0,0,0,11.34-8.25L179,214.86l8.73.7a3.86,3.86,0,0,1,3.42,2.69,3.8,3.8,0,0,1-1.11,4.17l-7.53,6.87a12,12,0,0,0-3.91,8.55,11.68,11.68,0,0,0,3.51,8.67l5,5a4.08,4.08,0,0,1,.8,4.58l-43.67,87.66ZM248.07,340H248a4,4,0,0,1-4,4H153.4l42-84.17a11.7,11.7,0,0,0-2.31-13.72l-5-5a4,4,0,0,1-1.2-2.89,4.06,4.06,0,0,1,1.3-2.88l7-6.37,18.37,5.08a47,47,0,0,1,34.54,45.06Z"/><path class="cls-1" d="M108,113.53a5.5,5.5,0,1,0-5.5,5.51A5.55,5.55,0,0,0,108,113.53Z"/></g></g></g></svg>