<svg width="4009" height="3916" viewBox="0 0 4009 3916" fill="none" xmlns="http://www.w3.org/2000/svg">
<path d="M3958.84 1993.58C3979.08 912.094 3067.97 39.2601 1986.34 49.0821C914.531 58.8148 29.2628 921.921 49.3358 1993.58C69.0417 3045.65 934.128 3857.04 1986.34 3866.58C3048.55 3876.22 3938.95 3055.66 3958.84 1993.58Z" stroke="#09A1CB" stroke-width="98"/>
<path fill-rule="evenodd" clip-rule="evenodd" d="M906.836 749.584C770.053 852.184 696.551 968.331 720.836 1137.58C729.804 1200.09 780.268 1258.92 837.402 1325.53C885.385 1381.47 938.072 1442.89 974.836 1516.58C985.06 1537.08 990.775 1555.59 996.23 1573.25C1004.54 1600.15 1012.24 1625.09 1034.34 1652.08C1181.84 1715.08 1322.64 1736.43 1357.84 1715.08C1372.95 1705.92 1382.64 1697.43 1392.47 1688.83C1405.52 1677.4 1418.81 1665.78 1445.34 1652.08C1453.73 1636.36 1441.51 1609.76 1426.96 1578.09C1407.91 1536.62 1384.85 1486.45 1398.84 1440.58C1423.08 1361.07 1496.84 1308.58 1551.34 1292.08C1540.84 1085.08 1474.84 749.584 1359.34 684.083C1193.19 608.323 1052.91 640.015 906.836 749.584ZM3081.34 749.584C3218.12 852.184 3291.63 968.331 3267.34 1137.58C3258.37 1200.09 3207.91 1258.92 3150.78 1325.53C3102.79 1381.47 3050.1 1442.89 3013.34 1516.58C3003.12 1537.08 2997.4 1555.59 2991.95 1573.25C2983.64 1600.16 2975.94 1625.09 2953.84 1652.08C2806.34 1715.08 2665.54 1736.43 2630.34 1715.08C2615.23 1705.92 2605.53 1697.43 2595.71 1688.83C2582.65 1677.4 2569.37 1665.78 2542.84 1652.08C2534.44 1636.36 2546.66 1609.76 2561.22 1578.09C2580.27 1536.62 2603.32 1486.45 2589.34 1440.58C2565.1 1361.07 2491.34 1308.58 2436.84 1292.08C2447.34 1085.08 2513.34 749.584 2628.84 684.083C2794.98 608.323 2935.27 640.015 3081.34 749.584ZM2985.34 1779.58C3022.84 1779.58 3060.61 1779.96 3075.84 1811.58C3091.51 1844.13 3096.67 1924.46 3069.34 1948.08C3046.33 1967.98 3010.73 1957.19 2968.26 1944.32C2956.29 1940.69 2943.77 1936.9 2930.84 1933.58C2914.91 1929.5 2898.51 1928.71 2883.25 1927.98C2849.59 1926.36 2821.5 1925.01 2816.34 1889.08C2810.65 1849.5 2824.84 1794.08 2824.84 1794.08C2851.02 1773.97 2895.04 1776.04 2941.21 1778.2C2955.87 1778.89 2970.75 1779.58 2985.34 1779.58ZM2972.03 1966.17C3004.15 1964.07 3035.9 1962 3069.34 1973.58C3128.84 1994.19 3226.21 2077.27 3241.34 2181.58C3245.52 2210.38 3246.36 2227.43 3241.34 2256.08C3237.46 2278.2 3215.91 2319.04 3189.48 2369.11C3157.96 2428.83 3119.51 2501.68 3095.84 2571.58C3072.34 2856.58 3026.84 3342.58 3026.84 3342.58L2810.34 3324.58C2810.34 3324.58 2866.56 2929.34 2818.84 2683.58C2812.5 2650.9 2803.01 2625 2793.87 2600.08L2793.87 2600.07C2781.25 2565.63 2769.32 2533.07 2767.34 2487.08C2765.24 2438.3 2781.35 2393.38 2797.16 2349.29C2816.95 2294.09 2836.28 2240.18 2818.84 2181.58C2809.59 2150.5 2792.22 2132.19 2774.69 2113.71C2757.85 2095.97 2740.88 2078.08 2730.84 2048.58C2717.35 2008.92 2712.98 1991.91 2724.34 1951.58C2731.95 1924.57 2748.34 1910.08 2773.34 1910.08C2804.1 1910.08 2818.36 1921.83 2833.9 1934.64C2846.79 1945.25 2860.56 1956.6 2885.34 1962.58C2915.47 1969.86 2943.9 1968 2972.03 1966.17ZM1002.84 1779.58C965.336 1779.58 927.564 1779.96 912.336 1811.58C896.665 1844.13 891.507 1924.46 918.836 1948.08C941.849 1967.98 977.447 1957.19 1019.92 1944.32C1031.89 1940.69 1044.4 1936.9 1057.34 1933.58C1073.27 1929.5 1089.67 1928.71 1104.93 1927.98C1138.59 1926.36 1166.67 1925.01 1171.84 1889.08C1177.52 1849.5 1163.34 1794.08 1163.34 1794.08C1137.15 1773.97 1093.13 1776.04 1046.97 1778.2C1032.31 1778.89 1017.43 1779.58 1002.84 1779.58ZM2701.84 1837.08C2690.63 1794.03 2658.48 1765.74 2619.34 1744.58C2593.21 1730.46 2577.02 1723.49 2547.34 1724.58C2501.09 1726.29 2451.34 1794.08 2451.34 1794.08V1806.58C2451.34 1806.58 2361.45 1884.51 2291.84 1912.58C2263.4 1924.05 2233.31 1927.07 2204.05 1930.01C2158.97 1934.53 2115.87 1938.85 2083.84 1973.58C2052.78 2007.27 2052.69 2020.45 2052.4 2062.57L2052.4 2063.3L2052.39 2063.84L2052.37 2067.7L2052.34 2070.58C2051.6 2151.44 2113.34 2244.08 2165.34 2244.08C2197.29 2244.08 2212.63 2218.43 2226.34 2189.58C2232.26 2177.14 2231.85 2163.01 2231.4 2147.38C2230.74 2124.72 2230 2098.92 2248.34 2070.58C2294.01 2000.05 2441.02 2029.08 2441.02 2029.08C2441.02 2029.08 2444.04 2082.98 2435.34 2119.08C2426.19 2157.04 2409.28 2187.82 2380.84 2214.58C2355.69 2238.26 2323.11 2245.76 2295.65 2252.08C2267.44 2258.57 2244.64 2263.81 2240.84 2284.08C2234.64 2317.17 2260.53 2341.23 2291.84 2353.58C2384.34 2390.08 2441.02 2374.58 2506.34 2353.58C2570.34 2323.08 2635.46 2227.59 2673.84 2113.08C2696.3 2046.08 2723.84 1921.58 2701.84 1837.08ZM918.836 1973.58C952.282 1962 984.023 1964.07 1016.15 1966.17C1044.28 1968 1072.71 1969.86 1102.84 1962.58C1127.62 1956.6 1141.39 1945.25 1154.27 1934.64C1169.82 1921.83 1184.08 1910.08 1214.84 1910.08C1239.84 1910.08 1256.22 1924.57 1263.84 1951.58C1275.2 1991.91 1270.83 2008.92 1257.34 2048.58C1247.3 2078.08 1230.33 2095.97 1213.49 2113.71C1195.96 2132.19 1178.58 2150.5 1169.34 2181.58C1151.9 2240.18 1171.23 2294.09 1191.02 2349.29C1206.83 2393.38 1222.93 2438.3 1220.84 2487.08C1218.86 2533.07 1206.93 2565.63 1194.31 2600.07C1185.18 2624.99 1175.68 2650.9 1169.34 2683.58C1121.62 2929.34 1177.84 3324.58 1177.84 3324.58L961.336 3342.58C961.336 3342.58 915.836 2856.58 892.336 2571.58C868.669 2501.68 830.214 2428.83 798.694 2369.11C772.266 2319.04 750.712 2278.2 746.836 2256.08C741.813 2227.43 742.659 2210.38 746.836 2181.58C761.966 2077.27 859.336 1994.19 918.836 1973.58ZM1286.34 1837.08C1297.54 1794.03 1329.7 1765.74 1368.84 1744.58C1394.96 1730.46 1411.15 1723.49 1440.84 1724.58C1487.09 1726.29 1536.84 1794.08 1536.84 1794.08V1806.58C1536.84 1806.58 1626.73 1884.51 1696.34 1912.58C1724.77 1924.05 1754.87 1927.07 1784.13 1930.01C1829.21 1934.53 1872.31 1938.85 1904.34 1973.58C1935.4 2007.28 1935.49 2020.45 1935.78 2062.57L1935.78 2063.3C1935.8 2065.64 1935.81 2068.06 1935.84 2070.58C1936.58 2151.44 1874.84 2244.08 1822.84 2244.08C1790.89 2244.08 1775.55 2218.43 1761.84 2189.58C1755.92 2177.14 1756.33 2163.01 1756.78 2147.38C1757.43 2124.72 1758.18 2098.92 1739.84 2070.58C1694.17 2000.05 1547.16 2029.08 1547.16 2029.08C1547.16 2029.08 1544.14 2082.98 1552.84 2119.08C1561.98 2157.04 1578.9 2187.82 1607.34 2214.58C1632.49 2238.26 1665.07 2245.76 1692.52 2252.08C1720.73 2258.57 1743.53 2263.81 1747.34 2284.08C1753.54 2317.17 1727.65 2341.23 1696.34 2353.58C1603.84 2390.08 1547.16 2374.58 1481.84 2353.58C1417.84 2323.08 1352.72 2227.59 1314.34 2113.08C1291.88 2046.08 1264.34 1921.58 1286.34 1837.08Z" fill="url(#paint0_radial_4_346)"/>
<defs>
<radialGradient id="paint0_radial_4_346" cx="0" cy="0" r="1" gradientUnits="userSpaceOnUse" gradientTransform="translate(343.836 1992.58) scale(4682.5 4432.29)">
<stop/>
<stop offset="0" stop-color="#30b3ffff"/>
<stop offset="0.168269" stop-color="#09A1CB"/>
<stop offset="0.403846" stop-color="#09A1CB"/>
<stop offset="0.5" stop-color="#30b3ffff"/>
<stop offset="0.596154" stop-color="#09A1CB"/>
</radialGradient>
</defs>
</svg>
