<svg width="502" height="502" viewBox="0 0 502 502" fill="none" xmlns="http://www.w3.org/2000/svg">
<path d="M501.641 139.809V361.828C501.641 439.051 439.051 501.648 361.832 501.648H139.82C62.6016 501.648 0 439.051 0 361.828V139.809C0 62.5977 62.6016 0 139.82 0H361.832C439.051 0 501.641 62.5977 501.641 139.809Z" fill="#100F0D"/>
<path d="M252.622 305.09C221.27 306.097 195.544 280.379 196.563 249.019C197.493 220.578 220.571 197.488 249.02 196.558C280.383 195.539 306.102 221.269 305.083 252.629C304.161 281.07 281.071 304.16 252.622 305.09ZM252.051 163.051C202.68 162.367 162.372 202.679 163.051 252.051C163.692 299.39 202.243 337.949 249.59 338.597C298.973 339.277 339.282 298.969 338.602 249.597C337.954 202.25 299.391 163.699 252.051 163.051Z" fill="white"/>
<path d="M386.402 322.598C386.402 357.84 357.832 386.41 322.59 386.41H179.051C143.812 386.41 115.242 357.84 115.242 322.598V179.051C115.242 143.809 143.812 115.25 179.051 115.25H322.59C357.832 115.25 386.402 143.82 386.402 179.059V322.598ZM322.602 81.75H179.051C125.32 81.75 81.75 125.32 81.75 179.059V322.598C81.75 376.328 125.312 419.898 179.051 419.898H322.59C376.332 419.898 419.902 376.328 419.902 322.598V179.051C419.902 125.32 376.332 81.75 322.602 81.75Z" fill="white"/>
<path d="M341.301 137.699C327.461 136.808 315.993 148.277 316.872 162.117C317.602 173.57 326.852 182.808 338.293 183.551C352.141 184.437 363.614 172.969 362.723 159.117C361.993 147.679 352.743 138.429 341.301 137.699Z" fill="white"/>
</svg>
