<svg viewBox="0 0 923 923" fill="none" xmlns="http://www.w3.org/2000/svg">
<path fill-rule="evenodd" clip-rule="evenodd" d="M923 461.5C923 708.872 728.372 910.786 483.893 922.466L509.176 862.325C706.441 837.417 859 669.024 859 465C859 243.81 679.69 64.5 458.5 64.5C391.667 64.5 328.657 80.8704 273.262 109.82L526.5 268.5C526.5 268.5 577.355 296.534 578 327.5C578.568 354.789 569.126 371.598 543 379.5C528.275 383.953 517.043 379.185 504.769 373.973C497.385 370.838 489.625 367.543 480.5 366C468.939 364.044 458.359 366.722 448.344 369.256C434.341 372.8 421.44 376.064 408.5 366C399.142 358.722 397.622 351.218 396.142 343.91C394.775 337.161 393.442 330.58 386 324.5C352.681 297.279 290.383 260.728 232.468 226.749C209.812 213.456 187.827 200.557 168.509 188.764C147.099 175.693 128.966 163.981 116.83 154.598C201.354 59.7391 324.451 0 461.5 0C716.379 0 923 206.621 923 461.5ZM329.5 247C290.32 223.809 216.382 179.529 193.933 164.32C197.351 161.31 200.82 158.358 204.34 155.465C224.69 168.016 303.462 217.49 329.5 247ZM584.5 335C604.477 340.236 612.656 355.376 612 374C611.457 389.431 609.453 405.841 591 407.5C582.59 408.256 578.695 333.479 584.5 335ZM0 461.5C0 669.523 137.635 845.401 326.809 903.035C368.998 915.889 413.75 922.861 460.111 922.998C461.405 911.682 463.826 891.396 467.352 865.404C478.124 785.992 499.211 653.32 530 560.5C536.776 540.071 546.002 524.575 554.801 509.795C568.951 486.028 582 464.11 582 426.5C582 425.245 582.017 424.03 582.033 422.855C582.194 411.198 582.303 403.312 565.5 396.5C546.812 388.924 532.64 392.265 516.308 396.116C501.377 399.636 484.641 403.582 461 400C453.928 398.929 446.412 396.034 438.815 393.108C428.557 389.157 418.152 385.15 408.5 385.5C408.233 385.51 407.966 385.519 407.699 385.527C407.6 385.53 407.501 385.533 407.402 385.536L407.143 385.543C406.865 385.551 406.587 385.558 406.31 385.565L406.128 385.57L405.663 385.581C397.382 385.787 389.681 385.978 386 393.5C380.259 405.231 385.279 424.806 391.165 447.755C397.07 470.778 403.845 497.198 401.5 522.5C393.228 611.747 365.541 730.033 346.228 812.546C343.325 824.945 340.609 836.548 338.18 847.111C175.781 796.025 58 644.267 58 465C58 370.532 90.7075 283.702 145.416 215.219L88.4273 189.786C32.8171 266.01 0 359.922 0 461.5ZM394.419 860.401C384.141 858.748 373.994 856.704 363.993 854.285C371.92 816.014 391.366 720.158 401.5 653C407.762 611.5 414.5 556.5 414.5 556.5C414.5 556.5 439.5 602 425 689C415.891 743.651 402.008 819.432 394.419 860.401Z" fill="url(#paint0_linear_4_127)"/>
<defs>
<linearGradient id="paint0_linear_4_127" x1="665.5" y1="-35" x2="170.5" y2="839.5" gradientUnits="userSpaceOnUse">
<stop stop-color="#09A1CB"/>
<stop offset="1" stop-color="#09A1CB"/>
</linearGradient>
</defs>
</svg>
