<svg width="725" height="929" viewBox="0 0 725 929" fill="none" xmlns="http://www.w3.org/2000/svg">
<path fill-rule="evenodd" clip-rule="evenodd" d="M574.999 911.245C533.485 922.371 492.796 929 464.5 929C457.714 929 450.961 928.854 444.246 928.566C197.107 917.963 0 714.25 0 464.5C0 207.964 207.964 0 464.5 0C533.574 0 666 26 719 75.5C652 45 588.193 34.5 550 34.5C487.408 34.5 427.725 47.236 373.66 70.314C272.206 113.62 190.533 193.341 146.542 293.66C123.684 345.786 111 403.472 111 464.5C111 668.952 249.407 830.864 438.511 875.336C446.073 877.115 453.715 878.705 461.433 880.103C466.228 880.972 471.052 881.766 475.904 882.484C479.183 882.97 482.474 883.421 485.777 883.838C495.474 885.06 505.276 885.982 515.173 886.595C524.861 887.196 534.64 887.5 544.5 887.5C553.956 887.5 566.944 886.608 581.841 884.788C627.112 879.257 690.013 865.158 725 841.5C696.368 869.837 634.827 895.211 574.999 911.245ZM383.829 77.6934C461.36 134.144 701.781 313.432 707.5 370C711.794 412.475 652.304 628.208 610.082 781.32C600.07 817.631 591.028 850.42 584.038 876.541C564.717 879.259 544.623 880.994 526.937 880.324L535.075 875.986C535.075 875.986 583.093 699.651 608.593 570.788C609.516 566.127 610.32 561.82 611.081 557.746C614.345 540.265 616.807 527.08 624.35 508.695C633.596 486.155 647.617 466.489 647.617 466.489C647.617 466.489 665.973 444.5 664.25 431.513C662.548 418.678 658.453 414.234 649.356 408.912C639.263 403.006 630.632 403.947 621.448 404.947C614.84 405.667 607.946 406.418 600.015 404.673C593.635 403.27 588.407 399.61 583.464 396.15C575.748 390.749 568.73 385.837 559.12 390.759C557.964 391.351 556.791 391.82 555.656 392.273C551.925 393.763 548.588 395.095 547.49 400.161C542.742 422.064 548.641 453.121 553.883 480.721C556.706 495.583 559.338 509.442 560.015 520.33C567.433 639.576 513.496 806.315 488.893 875.197C485.467 874.478 482.022 873.703 478.581 872.884C497.25 805.583 538.357 650.168 553.025 536.371C557.196 504.02 551.078 489.913 545.273 476.525C541.663 468.202 538.174 460.156 537.352 448.175C535.936 427.528 541.122 404.294 541.122 404.294C541.122 404.294 523.877 409.054 520.64 446.74C519.355 461.699 524.295 471.961 529.192 482.136C534.243 492.628 539.247 503.025 537.334 518.381C522.622 636.462 482.623 798.314 464.263 869.234C454.836 866.681 445.667 863.921 437.215 861.216C431.564 797.377 426.364 706.523 434 638.5C443.67 552.354 483 422 483 422L160.28 298.9C169.194 275.926 185.649 243.664 215.812 206.568C261.24 227.579 434 306.5 434 306.5C434 306.5 515.732 344.668 533.5 366.5C534.747 369.859 535.207 372.41 535.653 374.885C536.132 377.543 536.595 380.112 538 383.5C541.326 391.517 556 389 556 380C556 355.443 539 347 539 347C539 347 552.5 350.5 561.867 373.071C566.691 389.546 576.085 385.509 585.077 381.645C589.563 379.717 593.949 377.832 597.617 378.558C602.054 379.437 605.49 380.928 608.685 382.315C613.906 384.582 618.483 386.569 625.735 385.144C637.191 382.892 646.419 377.917 650.639 363.193C654.564 349.5 650.639 343 640.5 334L618.5 316C601.421 301.878 506.441 247.38 422.802 199.389C368.262 168.094 318.544 139.567 298.395 126.807C329.672 103.61 359.889 87.9442 383.829 77.6934ZM664.092 361.159C664.092 361.159 661.453 375.417 656.178 382.629C649.915 391.189 633.871 398.114 633.871 398.114C633.871 398.114 650.502 396.268 659.061 401.274C666.476 405.61 673.127 418.187 673.127 418.187C673.127 418.187 682.818 404.107 681.622 392.089C680.289 378.689 664.092 361.159 664.092 361.159Z" fill="url(#paint0_linear_4_259)"/>
<defs>
<linearGradient id="paint0_linear_4_259" x1="1016.5" y1="465" x2="3.90446e-05" y2="464.5" gradientUnits="userSpaceOnUse">
<stop stop-color="#D9D9D9"/>
<stop offset="1" stop-color="#737373"/>
</linearGradient>
</defs>
</svg>
