<svg width="726" height="831" viewBox="0 0 726 831" fill="none" xmlns="http://www.w3.org/2000/svg">
<path fill-rule="evenodd" clip-rule="evenodd" d="M260.267 778.765C245.927 627.591 283.18 469.403 320.865 361L0 241.025V628.5L260.267 778.765Z" fill="#797979"/>
<path d="M362.865 0L725.729 209.5V628.5L492.255 763.296L584.865 423C584.865 423 598.865 353 598.865 296C565.228 222.54 393.169 85.1014 316.874 26.5527L362.865 0Z" fill="#909090" fill-opacity="0.8"/>
<path d="M355.365 830.5H349.874L338.848 824.134C347.579 786.304 392.105 588.085 398.865 452C399.606 437.078 392.249 427.495 384.825 417.825C377.626 408.447 370.365 398.988 370.365 384.5C370.365 348 391.365 342 391.365 342C391.365 342 387.385 364.766 391.365 384.5C393.673 395.95 398.888 403.398 404.282 411.102C412.958 423.495 422.1 436.552 420.365 468C412.365 613 355.365 830.5 355.365 830.5Z" fill="#A6A6A6" fill-opacity="0.65"/>
<path d="M326.365 219.5C268.198 179.572 148.798 127.009 145.437 125.532L227.652 78.0649C256.763 94.4282 504.425 234.119 521.365 260L521.501 260.209C528.024 270.174 536.13 282.555 530.865 296C525.611 309.415 514.125 313.948 499.865 316C490.837 317.299 485.14 315.488 478.641 313.423C474.664 312.159 470.387 310.8 464.865 310C460.298 309.338 454.839 311.056 449.255 312.812C438.062 316.333 426.369 320.011 420.365 305C402.365 260 365.365 241.5 365.365 241.5C365.365 241.5 397.865 264 412.365 313C414.747 321.051 403.004 323.305 398.865 316C395.486 310.039 392.341 303.839 389.122 297.493C376.139 271.903 361.943 243.922 326.365 219.5Z" fill="#A6A6A6" fill-opacity="0.65"/>
<path d="M539.365 288.5C539.365 288.5 538.55 302.464 534.365 310C529.396 318.945 514.865 327.5 514.865 327.5C514.865 327.5 530.568 323.736 539.365 327.5C546.985 330.761 554.865 342 554.865 342C554.865 342 562.453 327.359 559.865 316C556.979 303.334 539.365 288.5 539.365 288.5Z" fill="#A6A6A6" fill-opacity="0.65"/>
<path d="M365.365 830.5L434.365 796C434.365 796 475.365 622.5 493.365 496.5C494.016 491.943 494.557 487.735 495.07 483.755C497.268 466.679 498.926 453.799 506.365 435.5C515.483 413.066 530.865 393 530.865 393C530.865 393 551.405 370.344 547.865 358C544.365 345.8 538.782 341.866 526.865 337.5C513.643 332.656 502.977 334.273 491.628 335.993C483.463 337.231 474.944 338.523 464.865 337.5C456.757 336.677 449.843 333.591 443.307 330.673L443.307 330.673C433.104 326.118 423.824 321.974 412.365 327.5C410.985 328.165 409.573 328.712 408.205 329.242C403.711 330.982 399.691 332.539 398.865 337.5C395.29 358.95 405.975 388.323 415.471 414.426C420.585 428.481 425.353 441.588 427.365 452C455.775 599.064 365.365 830.5 365.365 830.5Z" fill="#A6A6A6" fill-opacity="0.65"/>
</svg>
