<svg width="954" height="939" viewBox="0 0 954 939" fill="none" xmlns="http://www.w3.org/2000/svg">
<path fill-rule="evenodd" clip-rule="evenodd" d="M641.5 307.586V0H312.5V152.744L588 353.5C588 353.5 636 383 638 410.5C639.733 434.327 620.889 459.682 597 459.5C580.386 459.373 560.834 457.371 558 441C557.072 435.637 558.34 429.863 559.604 424.111C560.621 419.486 561.634 414.874 561.5 410.5C561.483 409.929 561.466 409.382 561.451 408.856C561.198 400.247 561.113 397.367 558 391C553.812 382.433 542.5 374.5 542.5 374.5C542.5 374.5 550.431 388.112 552 399.5C552.127 400.425 552.265 401.389 552.408 402.388C554.58 417.584 557.877 440.643 542.5 451.5C535.923 456.144 523 454.5 523 454.5C523 454.5 530.678 462.335 539 464C542.65 464.73 546.414 464.73 550.172 464.729C554.693 464.728 559.206 464.728 563.5 466C577 470 578.5 483 578.5 488.5C578.5 512 563.5 522.5 563.5 522.5C563.5 522.5 579.025 515.695 583.5 503.5C585.058 499.255 585.197 495.45 585.333 491.722C585.491 487.4 585.645 483.182 588 478.5C595.267 464.052 611.93 466.032 628.002 467.941L628.5 468C649.532 470.496 670.436 477.976 673 499C674.332 509.927 668.444 520.636 662.876 530.761C661.53 533.21 660.202 535.625 659 538C656.432 543.073 650.238 550.155 643.541 557.812C634.138 568.563 623.743 580.448 621 589.5C611.686 620.235 610.073 635.865 608.399 652.078C607.377 661.978 606.333 672.095 603.5 686C589.939 752.562 572.2 823.621 558.879 876.981C552.505 902.516 547.141 924.005 543.732 939H641.5V631.414H954V307.586H641.5ZM512 769C501.631 824.735 483.727 903.288 475.443 939H438.376C473.145 815.327 489.855 739.315 512 607C512 607 531.163 666 512 769ZM493.5 554.5C481.264 656.186 421.316 873.592 402.895 939H312.5V631.414H0V307.586H312.5V262.351C347.59 285.365 448.898 352.215 470.5 371C484.811 383.445 483.055 398.212 481.252 413.376C480.157 422.582 479.044 431.934 481.5 441C484.022 450.312 493.5 454.5 493.5 454.5C493.5 454.5 481 462 479 478.5C477.181 493.504 481.713 505.007 486.246 516.513C490.775 528.009 495.304 539.507 493.5 554.5ZM315.5 238C315.5 238 352.942 265.811 375 283.5C394.068 298.792 421.5 320.5 421.5 320.5C421.5 320.5 386.579 299.471 366 283.5C345.029 267.225 315.5 238 315.5 238ZM644 402.5C644 402.5 670.719 411.947 678 428C686.186 446.048 673 478.5 673 478.5C673 478.5 659 466 652 442.5C647.102 426.058 644 402.5 644 402.5Z" fill="url(#paint0_linear_4_30)"/>
<defs>
<linearGradient id="paint0_linear_4_30" x1="0" y1="469.5" x2="954" y2="469.5" gradientUnits="userSpaceOnUse">
<stop stop-color="#7B7B7B"/>
<stop offset="1" stop-color="#BEBEBE"/>
</linearGradient>
</defs>
</svg>
