<svg width="467" height="467" viewBox="0 0 467 467" fill="none" xmlns="http://www.w3.org/2000/svg">
<rect width="467" height="467" rx="106" fill="url(#paint0_linear_1_321)"/>
<path d="M382.266 325.53C378.22 328.347 373.303 330 368 330H106C101.157 330 96.637 328.622 92.8076 326.238L184.518 236.836L221.496 274.619C230.601 285.232 246.313 283.588 254.502 274.598L292.322 235.551L382.266 325.53ZM179.798 232.013L87.584 321.906C83.4961 317.456 81 311.519 81 305V157C81 149.901 83.9591 143.493 88.7109 138.942L179.798 232.013ZM385.603 139.249C390.17 143.779 393 150.059 393 157V305C393 311.069 390.836 316.632 387.239 320.962L297.019 230.704L385.603 139.249ZM368 132C372.325 132 376.393 133.099 379.941 135.032L289.485 228.42L249.464 269.738L249.42 269.784L249.378 269.831C243.569 276.276 232.7 277.025 226.74 269.984L226.659 269.888L226.57 269.797L94.4658 134.815C97.9169 133.017 101.839 132 106 132H368Z" fill="white"/>
<defs>
<linearGradient id="paint0_linear_1_321" x1="144" y1="29.5" x2="166.5" y2="408.5" gradientUnits="userSpaceOnUse">
<stop stop-color="#5778FB"/>
<stop offset="1" stop-color="#6EEAFF"/>
</linearGradient>
</defs>
</svg>
