<svg width="173" height="289" viewBox="0 0 173 289" fill="none" xmlns="http://www.w3.org/2000/svg">
<path d="M117.721 171.161L131.966 172.656V288.6L92.6207 246.587V179.747L104.048 185.328L117.721 171.161ZM55.0135 171.161L40.7617 172.656V288.6L80.1061 246.587V179.747L68.6794 185.328L55.0135 171.161ZM162.912 98.5219L167.522 114.567L153.685 123.896L152.526 140.567L136.333 144.598L129.555 159.852L112.954 158.098L101.363 170.073L86.3675 162.747L71.3715 170.073L59.7805 158.059L43.1796 159.813L36.4019 144.559L20.2089 140.567L19.0501 123.919L5.17348 114.559L9.78356 98.5144L0 84.9979L9.81493 71.4964L5.17348 55.4834L19.0188 46.1541L20.1776 29.5063L36.4019 25.5148L43.1796 10.261L59.7805 12.0139L71.3715 0L86.3675 7.32606L101.363 0L112.954 12.0139L129.555 10.261L136.333 25.5148L152.526 29.5458L153.685 46.193L167.522 55.5223L162.912 71.5673L172.735 84.9979L162.912 98.5219ZM132.036 84.9979C132.036 76.0336 129.378 67.2707 124.397 59.8171C119.417 52.3636 112.339 46.5543 104.057 43.1239C95.7748 39.6934 86.6616 38.7958 77.8696 40.5447C69.0776 42.2935 61.0016 46.6102 54.6629 52.9489C48.3242 59.2876 44.0076 67.3636 42.2587 76.1556C40.5099 84.9476 41.4074 94.0607 44.8379 102.343C48.2684 110.625 54.0777 117.703 61.5312 122.683C68.9847 127.664 77.7477 130.322 86.7119 130.322C98.7268 130.303 110.244 125.522 118.74 117.026C127.236 108.53 132.017 97.0128 132.036 84.9979ZM86.7119 52.1959C80.2244 52.1959 73.8827 54.1196 68.4885 57.7239C63.0944 61.3281 58.8902 66.4509 56.4075 72.4446C53.9248 78.4382 53.2752 85.0334 54.5408 91.3962C55.8064 97.759 58.9304 103.604 63.5176 108.191C68.1049 112.778 73.9495 115.902 80.3123 117.168C86.6751 118.434 93.2703 117.784 99.264 115.302C105.258 112.819 110.381 108.615 113.985 103.221C117.589 97.8271 119.513 91.4853 119.513 84.9979C119.488 76.3082 116.024 67.9819 109.877 61.8395C103.73 55.6971 95.4016 52.2384 86.7119 52.2197V52.1959Z" fill="#09A1CB" fill-opacity="0.5"/>
</svg>
