<svg viewBox="0 0 722 682" fill="none" xmlns="http://www.w3.org/2000/svg">
<circle cx="361.205" cy="186.504" r="132.5" stroke="#00F7FF" stroke-width="17" stroke-linecap="round" stroke-linejoin="round"/>
<path d="M309.205 618.505C309.205 618.505 325.798 620.917 331.705 628.505C335.65 633.573 337.205 644.005 337.205 644.005V673.005H117.705V644.005C117.705 644.005 117.984 630.698 123.205 625.005C129.26 618.402 145.205 618.505 145.205 618.505M309.205 618.505H145.205M309.205 618.505C309.205 618.505 318.615 506.985 291.705 444.005C268.205 389.005 150.705 247.005 150.705 247.005C150.705 247.005 136.769 232.703 120.205 235.819M145.205 618.505C145.205 618.505 152.834 558.514 140.205 525.505C118.205 468.005 17.4535 375.611 8.70448 308.004C4.69278 277.004 60.2048 33.005 60.2048 33.005C60.2048 33.005 65.7048 8.09698 93.2047 8.50496C120.705 8.91294 125.205 33.005 125.205 33.005L120.205 235.819M176.705 401.505L98.2047 272.505C98.2047 272.505 91.7047 250.505 111.705 239.005C114.576 237.354 117.427 236.342 120.205 235.819" stroke="#00F7FF" stroke-width="17" stroke-linecap="round" stroke-linejoin="round"/>
<path d="M412.705 618.505C412.705 618.505 396.111 620.917 390.205 628.505C386.259 633.573 384.705 644.005 384.705 644.005V673.005H604.205V644.005C604.205 644.005 603.926 630.698 598.705 625.005C592.65 618.402 576.705 618.505 576.705 618.505M412.705 618.505H576.705M412.705 618.505C412.705 618.505 403.295 506.985 430.205 444.005C453.705 389.005 571.205 247.005 571.205 247.005C571.205 247.005 585.14 232.703 601.705 235.819M576.705 618.505C576.705 618.505 569.075 558.514 581.705 525.505C603.705 468.005 704.456 375.611 713.205 308.004C717.217 277.004 661.705 33.005 661.705 33.005C661.705 33.005 656.205 8.09698 628.705 8.50496C601.205 8.91294 596.705 33.005 596.705 33.005L601.705 235.819M545.205 401.505L623.705 272.505C623.705 272.505 630.205 250.505 610.205 239.005C607.333 237.354 604.482 236.342 601.705 235.819" stroke="#00F7FF" stroke-width="17" stroke-linecap="round" stroke-linejoin="round"/>
<path d="M386.958 110.004H332.451V157.004H286.705V213.004H332.451V260.004H386.958V213.004H432.705V157.004H386.958V110.004Z" stroke="#00F7FF" stroke-width="17" stroke-linecap="round" stroke-linejoin="round"/>
<circle cx="429.205" cy="646.504" r="7.5" fill="#00F7FF"/>
<circle cx="292.205" cy="646.504" r="7.5" fill="#00F7FF"/>
</svg>
