<svg width="266" height="253" xmlns="http://www.w3.org/2000/svg" fill="#0E5B81" viewBox="0 0 269 256">
  <path d="M266 165.137C266 175.078 257.941 183.137 248 183.137H203.19C193.249 183.137 185.19 191.196 185.19 201.137V235C185.19 244.941 177.131 253 167.19 253H91.4025C81.4614 253 73.4025 244.941 73.4025 235V201.137C73.4025 191.196 65.3437 183.137 55.4025 183.137H18C8.05886 183.137 0 175.078 0 165.137L0 88.5415C0 78.6004 8.05887 70.5415 18 70.5415H55.4025C65.3437 70.5415 73.4025 62.4827 73.4025 52.5416V18C73.4025 8.05888 81.4614 0 91.4025 0L167.19 0C177.131 0 185.19 8.05888 185.19 18V52.5415C185.19 62.4827 193.249 70.5415 203.19 70.5415H248C257.941 70.5415 266 78.6004 266 88.5416V165.137Z"/>
</svg>
