<svg width="512" height="512" viewBox="0 0 512 512" fill="none" xmlns="http://www.w3.org/2000/svg">
<path d="M95.084 15.4921C96.228 15.4858 97.372 15.4796 98.5506 15.4732C101.727 15.46 104.902 15.4647 108.078 15.4771C111.502 15.4861 114.927 15.4722 118.352 15.4612C125.061 15.4434 131.77 15.4473 138.479 15.4588C143.931 15.4679 149.383 15.4691 154.835 15.4647C155.998 15.4638 155.998 15.4638 157.184 15.4629C158.76 15.4616 160.335 15.4603 161.91 15.459C176.686 15.4476 191.462 15.4607 206.238 15.4822C218.922 15.5001 231.605 15.497 244.289 15.4785C259.012 15.4571 273.734 15.4487 288.457 15.461C290.027 15.4622 291.596 15.4635 293.165 15.4647C293.937 15.4654 294.71 15.466 295.505 15.4666C300.952 15.4701 306.398 15.4642 311.844 15.4548C318.48 15.4436 325.116 15.4466 331.752 15.468C335.138 15.4785 338.525 15.4826 341.912 15.4694C345.58 15.4585 349.248 15.4721 352.916 15.4921C353.991 15.4832 355.066 15.4742 356.174 15.465C363.337 15.5412 363.337 15.5412 366.664 17.8427C368.521 20.8411 368.454 23.0052 368.391 26.5156C368.371 28.3912 368.371 28.3912 368.352 30.3047C368.301 32.2576 368.301 32.2576 368.25 34.25C368.232 35.5674 368.214 36.8849 368.195 38.2422C368.148 41.4955 368.082 44.7474 368 48C368.827 47.9791 369.655 47.9581 370.507 47.9365C374.254 47.8534 378.002 47.8014 381.75 47.75C383.052 47.7165 384.354 47.683 385.695 47.6484C386.946 47.6356 388.196 47.6227 389.484 47.6094C390.636 47.5884 391.789 47.5675 392.976 47.5459C396.725 48.1089 397.658 49.0788 400 52C400.492 54.4288 400.492 54.4288 400.481 57.1885C400.489 58.7618 400.489 58.7618 400.498 60.3669C400.476 62.0846 400.476 62.0846 400.454 63.8369C400.455 65.047 400.455 66.257 400.456 67.5037C400.454 70.8178 400.434 74.1309 400.406 77.4448C400.381 80.9094 400.378 84.3741 400.373 87.8388C400.361 94.3978 400.328 100.957 400.288 107.516C400.243 114.983 400.221 122.451 400.201 129.919C400.159 145.28 400.089 160.64 400 176C400.7 175.991 401.4 175.982 402.121 175.973C408.769 175.892 415.417 175.832 422.065 175.793C425.482 175.772 428.898 175.744 432.314 175.698C436.256 175.646 440.198 175.627 444.141 175.609C445.951 175.578 445.951 175.578 447.797 175.547C462.342 175.543 473.169 180.496 483.75 190.313C493.155 200.25 496.546 211.42 496.281 224.867C495.95 231.772 493.947 238.309 492.031 244.906C491.602 246.439 491.175 247.971 490.75 249.505C489.834 252.788 488.907 256.069 487.97 259.346C486.467 264.604 484.991 269.869 483.519 275.136C481.695 281.652 479.865 288.167 478.028 294.679C474.57 306.934 471.169 319.203 467.793 331.48C467.539 332.402 467.286 333.324 467.025 334.274C466.005 337.983 464.985 341.692 463.965 345.402C461.213 355.418 458.452 365.432 455.688 375.445C455.325 376.758 455.325 376.758 454.956 378.097C451.801 389.519 448.628 400.935 445.431 412.346C444.821 414.524 444.211 416.702 443.602 418.88C441.769 425.424 439.932 431.968 438.087 438.509C433.904 453.332 433.904 453.332 430.623 468.373C428.337 478.008 421.234 486.214 413 491.375C404.48 496.392 396.448 496.291 386.793 496.267C385.335 496.271 383.876 496.276 382.418 496.281C378.419 496.293 374.42 496.293 370.421 496.291C366.104 496.29 361.788 496.301 357.471 496.311C349.018 496.327 340.564 496.333 332.11 496.334C325.237 496.335 318.365 496.339 311.492 496.346C291.999 496.363 272.507 496.372 253.015 496.371C251.439 496.371 251.439 496.371 249.831 496.371C248.253 496.37 248.253 496.37 246.644 496.37C229.599 496.37 212.555 496.389 195.511 496.417C178.003 496.446 160.496 496.459 142.988 496.458C133.161 496.457 123.335 496.462 113.508 496.484C105.142 496.502 96.7747 496.507 88.4078 496.493C84.1411 496.487 79.8746 496.486 75.608 496.504C71.6969 496.519 67.7864 496.517 63.8754 496.499C62.4656 496.496 61.0557 496.5 59.646 496.511C46.6753 496.607 36.5441 494.111 27 485C15.0299 472.461 15.4174 458.796 15.4824 442.445C15.477 440.156 15.4699 437.867 15.4612 435.578C15.443 429.384 15.45 423.19 15.4627 416.996C15.4729 410.501 15.4634 404.007 15.4572 397.512C15.4494 385.91 15.4618 374.308 15.4822 362.706C15.5001 352.204 15.497 341.703 15.4785 331.201C15.4571 318.981 15.4492 306.761 15.461 294.541C15.4672 288.082 15.4681 281.622 15.4548 275.163C15.4432 269.089 15.4513 263.015 15.4744 256.941C15.4797 254.717 15.4782 252.493 15.4694 250.269C15.414 234.953 15.8814 222.647 27 211C37.9929 200.506 49.6762 199.417 64.1875 199.75C65.7272 199.77 67.2669 199.788 68.8066 199.805C72.5383 199.848 76.269 199.917 80 200C79.9963 199.076 79.9926 198.152 79.9888 197.2C79.9001 174.733 79.8343 152.267 79.7928 129.8C79.7721 118.935 79.744 108.071 79.6982 97.2061C79.6584 87.7381 79.6326 78.2703 79.6236 68.8023C79.6184 63.7875 79.6061 58.7729 79.5771 53.7582C79.55 49.0403 79.5416 44.3227 79.5476 39.6047C79.5465 37.8712 79.5385 36.1378 79.5232 34.4044C79.5033 32.0407 79.508 29.6783 79.519 27.3145C79.5073 26.6258 79.4957 25.9371 79.4837 25.2275C79.521 22.249 79.8941 20.1921 81.3373 17.5746C85.6951 14.9976 90.116 15.4508 95.084 15.4921Z" fill="#3795D1"/>
<path d="M96 32C180.48 32 264.96 32 352 32C352 100.64 352 169.28 352 240C314.318 241.176 314.318 241.176 275.875 242.375C268.024 242.721 260.174 243.067 252.085 243.423C245.736 243.583 239.404 243.717 233.055 243.711C232.232 243.712 231.409 243.713 230.562 243.714C208.732 243.658 192.316 242.056 176.036 226.285C169.388 219.245 163.465 211.711 158.259 203.547C156.983 201.696 156.983 201.696 154 201C134.86 200.67 115.72 200.34 96 200C96 144.56 96 89.12 96 32Z" fill="#E3EAEF"/>
<path d="M95.084 15.4921C96.228 15.4858 97.372 15.4796 98.5506 15.4732C101.727 15.46 104.902 15.4647 108.078 15.4771C111.502 15.4861 114.927 15.4722 118.352 15.4612C125.061 15.4434 131.77 15.4473 138.479 15.4588C143.931 15.4679 149.383 15.4691 154.835 15.4647C155.998 15.4638 155.998 15.4638 157.184 15.4629C158.76 15.4616 160.335 15.4603 161.91 15.459C176.686 15.4476 191.462 15.4607 206.238 15.4822C218.922 15.5001 231.605 15.497 244.289 15.4785C259.012 15.4571 273.734 15.4487 288.457 15.461C290.027 15.4622 291.596 15.4635 293.165 15.4647C293.937 15.4654 294.71 15.466 295.505 15.4666C300.952 15.4701 306.398 15.4642 311.844 15.4548C318.48 15.4436 325.116 15.4466 331.752 15.468C335.138 15.4785 338.525 15.4826 341.912 15.4694C345.58 15.4585 349.248 15.4721 352.916 15.4921C353.991 15.4832 355.066 15.4742 356.174 15.465C363.337 15.5412 363.337 15.5412 366.664 17.8427C368.521 20.8411 368.454 23.0052 368.391 26.5156C368.371 28.3912 368.371 28.3912 368.352 30.3047C368.301 32.2576 368.301 32.2576 368.25 34.25C368.232 35.5674 368.214 36.8849 368.195 38.2422C368.148 41.4955 368.082 44.7474 368 48C368.827 47.9791 369.655 47.9581 370.507 47.9365C374.254 47.8534 378.002 47.8014 381.75 47.75C383.052 47.7165 384.354 47.683 385.695 47.6484C386.946 47.6356 388.196 47.6227 389.484 47.6094C390.636 47.5884 391.789 47.5675 392.976 47.5459C396.725 48.1089 397.658 49.0788 400 52C400.492 54.4288 400.492 54.4288 400.481 57.1885C400.489 58.7618 400.489 58.7618 400.498 60.3669C400.476 62.0846 400.476 62.0846 400.454 63.8369C400.455 65.047 400.455 66.257 400.456 67.5037C400.454 70.8178 400.434 74.1309 400.406 77.4448C400.381 80.9094 400.378 84.3741 400.373 87.8388C400.361 94.3978 400.328 100.957 400.288 107.516C400.243 114.983 400.221 122.451 400.201 129.919C400.159 145.28 400.089 160.64 400 176C400.7 175.991 401.4 175.982 402.121 175.973C408.769 175.892 415.417 175.832 422.065 175.793C425.482 175.772 428.898 175.744 432.314 175.698C436.256 175.646 440.198 175.627 444.141 175.609C445.951 175.578 445.951 175.578 447.797 175.547C462.342 175.543 473.169 180.496 483.75 190.313C493.155 200.25 496.546 211.42 496.281 224.867C495.95 231.772 493.947 238.309 492.031 244.906C491.602 246.439 491.175 247.971 490.75 249.505C489.834 252.788 488.907 256.069 487.97 259.346C486.467 264.604 484.991 269.869 483.519 275.136C481.695 281.652 479.865 288.167 478.028 294.679C474.57 306.934 471.169 319.203 467.793 331.48C467.539 332.402 467.286 333.324 467.025 334.274C466.005 337.983 464.985 341.692 463.965 345.402C461.213 355.418 458.452 365.432 455.688 375.445C455.325 376.758 455.325 376.758 454.956 378.097C451.801 389.519 448.628 400.935 445.431 412.346C444.821 414.524 444.211 416.702 443.602 418.88C441.769 425.424 439.932 431.968 438.087 438.509C433.904 453.332 433.904 453.332 430.623 468.373C428.337 478.008 421.234 486.214 413 491.375C404.48 496.392 396.448 496.291 386.793 496.267C385.335 496.271 383.876 496.276 382.418 496.281C378.419 496.293 374.42 496.293 370.421 496.291C366.104 496.29 361.788 496.301 357.471 496.311C349.018 496.327 340.564 496.333 332.11 496.334C325.237 496.335 318.365 496.339 311.492 496.346C291.999 496.363 272.507 496.372 253.015 496.371C251.439 496.371 251.439 496.371 249.831 496.371C248.253 496.37 248.253 496.37 246.644 496.37C229.599 496.37 212.555 496.389 195.511 496.417C178.003 496.446 160.496 496.459 142.988 496.458C133.161 496.457 123.335 496.462 113.508 496.484C105.142 496.502 96.7747 496.507 88.4078 496.493C84.1411 496.487 79.8746 496.486 75.608 496.504C71.6969 496.519 67.7864 496.517 63.8754 496.499C62.4656 496.496 61.0557 496.5 59.646 496.511C46.6753 496.607 36.5441 494.111 27 485C15.0299 472.461 15.4174 458.796 15.4824 442.445C15.477 440.156 15.4699 437.867 15.4612 435.578C15.443 429.384 15.45 423.19 15.4627 416.996C15.4729 410.501 15.4634 404.007 15.4572 397.512C15.4494 385.91 15.4618 374.308 15.4822 362.706C15.5001 352.204 15.497 341.703 15.4785 331.201C15.4571 318.981 15.4492 306.761 15.461 294.541C15.4672 288.082 15.4681 281.622 15.4548 275.163C15.4432 269.089 15.4513 263.015 15.4744 256.941C15.4797 254.717 15.4782 252.493 15.4694 250.269C15.414 234.953 15.8814 222.647 27 211C37.9929 200.506 49.6762 199.417 64.1875 199.75C65.7272 199.77 67.2669 199.788 68.8066 199.805C72.5383 199.848 76.269 199.917 80 200C79.9963 199.076 79.9926 198.152 79.9888 197.2C79.9001 174.733 79.8343 152.267 79.7928 129.8C79.7721 118.935 79.744 108.071 79.6982 97.2061C79.6584 87.7381 79.6326 78.2703 79.6236 68.8023C79.6184 63.7875 79.6061 58.7729 79.5771 53.7582C79.55 49.0403 79.5416 44.3227 79.5476 39.6047C79.5465 37.8712 79.5385 36.1378 79.5232 34.4044C79.5033 32.0407 79.508 29.6783 79.519 27.3145C79.5073 26.6258 79.4957 25.9371 79.4837 25.2275C79.521 22.249 79.8941 20.1921 81.3373 17.5746C85.6951 14.9976 90.116 15.4508 95.084 15.4921ZM96 32C96 87.44 96 142.88 96 200C115.14 200.33 134.28 200.66 154 201C159.589 204.354 159.589 204.354 161.591 207.61C170.484 221.301 182.432 236.986 199.043 241.136C210.149 243.423 221.563 243.523 232.859 243.516C233.639 243.517 234.419 243.517 235.223 243.518C248.75 243.501 262.231 242.813 275.75 242.25C300.913 241.508 326.075 240.765 352 240C352 171.36 352 102.72 352 32C267.52 32 183.04 32 96 32ZM37.625 224.438C36.9779 225.179 36.3308 225.92 35.6641 226.684C31.8159 232.04 31.7097 236.784 31.7326 243.159C31.7281 244.083 31.7235 245.008 31.7189 245.961C31.7062 249.062 31.7078 252.162 31.7095 255.263C31.7035 257.485 31.6967 259.708 31.6891 261.93C31.6714 267.97 31.6668 274.009 31.6655 280.048C31.6636 285.091 31.6562 290.133 31.6492 295.175C31.6338 306.393 31.6278 317.611 31.6292 328.829C31.6292 329.502 31.6293 330.174 31.6294 330.868C31.6295 331.541 31.6296 332.215 31.6297 332.909C31.6305 343.822 31.6113 354.734 31.5831 365.646C31.5544 376.859 31.541 388.073 31.5423 399.286C31.5428 405.578 31.5371 411.87 31.516 418.162C31.4966 424.081 31.4964 430.001 31.511 435.92C31.5131 438.09 31.5084 440.26 31.4963 442.43C31.4808 445.398 31.4901 448.365 31.5055 451.334C31.4952 452.187 31.485 453.041 31.4744 453.92C31.5559 461.066 33.5058 467.077 38.1836 472.559C38.9274 473.179 39.6712 473.799 40.4375 474.438C41.1787 475.076 41.9199 475.714 42.6836 476.371C47.0405 479.435 50.7211 480.25 56.0093 480.257C57.2225 480.264 58.4356 480.27 59.6855 480.277C61.0284 480.274 62.3713 480.271 63.7142 480.267C65.1434 480.271 66.5726 480.276 68.0018 480.281C71.9295 480.293 75.8571 480.293 79.7848 480.291C84.0208 480.29 88.2568 480.301 92.4928 480.311C100.792 480.328 109.092 480.333 117.391 480.334C124.138 480.335 130.885 480.339 137.631 480.346C156.758 480.363 175.885 480.372 195.012 480.371C196.043 480.371 197.075 480.371 198.137 480.371C199.17 480.371 200.202 480.37 201.266 480.37C217.998 480.37 234.731 480.389 251.463 480.417C268.643 480.446 285.822 480.459 303.002 480.458C312.648 480.457 322.293 480.463 331.938 480.484C340.151 480.502 348.364 480.507 356.577 480.493C360.766 480.487 364.956 480.486 369.145 480.504C372.983 480.519 376.821 480.517 380.659 480.499C382.045 480.496 383.431 480.5 384.816 480.511C394.002 480.58 401.349 479.906 408.559 473.852C409.179 473.117 409.799 472.382 410.438 471.625C411.076 470.895 411.714 470.166 412.371 469.414C415.81 464.318 416.294 459.238 416.267 453.233C416.274 452.088 416.274 452.088 416.281 450.921C416.294 448.374 416.292 445.827 416.291 443.28C416.297 441.45 416.303 439.619 416.311 437.789C416.329 432.824 416.333 427.859 416.335 422.894C416.336 419.791 416.34 416.688 416.346 413.584C416.364 402.753 416.372 391.923 416.371 381.092C416.369 371.002 416.391 360.913 416.422 350.823C416.448 342.155 416.459 333.486 416.458 324.818C416.457 319.643 416.463 314.469 416.484 309.294C416.503 304.427 416.504 299.56 416.489 294.692C416.487 292.909 416.492 291.125 416.504 289.342C416.519 286.901 416.51 284.462 416.494 282.021C416.51 280.971 416.51 280.971 416.526 279.899C416.431 273.087 413.582 267.028 408.812 262.188C408.303 261.645 407.794 261.102 407.27 260.543C401.17 256.396 394.317 255.559 387.113 255.648C385.842 255.646 385.842 255.646 384.545 255.643C381.731 255.641 378.917 255.66 376.103 255.679C374.076 255.681 372.048 255.682 370.02 255.682C365.666 255.684 361.312 255.694 356.957 255.712C350.07 255.738 343.182 255.736 336.294 255.73C316.712 255.717 297.131 255.734 277.549 255.791C266.725 255.821 255.901 255.827 245.076 255.806C238.232 255.794 231.388 255.812 224.543 255.854C220.284 255.873 216.025 255.862 211.765 255.843C209.793 255.84 207.821 255.849 205.849 255.871C189.096 256.048 189.096 256.048 184.139 251.923C182.455 250 182.455 250 181 248C180.495 247.39 179.99 246.78 179.47 246.151C178.462 244.915 177.477 243.659 176.516 242.386C167.179 230.034 156.211 216.623 140.299 213.711C127.374 212.069 114.34 212.783 101.376 213.57C96.8265 213.813 92.2781 213.916 87.7231 214.014C78.3068 214.215 68.8919 214.504 59.4883 215.038C58.6416 215.074 57.7949 215.11 56.9226 215.147C49.0072 215.66 42.8266 218.312 37.625 224.438Z" fill="#062D42"/>
<path d="M59.2383 215.805C60.5594 215.809 60.5594 215.809 61.9073 215.813C64.7092 215.824 67.5107 215.85 70.3125 215.875C72.2168 215.885 74.1211 215.894 76.0254 215.902C80.6837 215.924 85.3418 215.959 90 216C89.2768 217.087 89.2768 217.087 88.5391 218.195C87.9074 219.162 87.2758 220.129 86.625 221.125C85.9985 222.076 85.372 223.028 84.7266 224.008C81.1745 230.164 80.7079 235.458 80.7326 242.393C80.728 243.331 80.7235 244.269 80.7188 245.235C80.7062 248.374 80.7078 251.513 80.7095 254.652C80.7035 256.904 80.6967 259.156 80.6891 261.408C80.6714 267.524 80.6668 273.64 80.6655 279.756C80.6641 283.577 80.6598 287.399 80.6545 291.221C80.6369 303.867 80.6276 316.514 80.6292 329.16C80.6293 330.182 80.6293 330.182 80.6294 331.225C80.6295 331.907 80.6296 332.589 80.6296 333.292C80.6305 344.343 80.6113 355.394 80.5831 366.446C80.5544 377.804 80.5409 389.162 80.5423 400.52C80.5428 406.892 80.5371 413.264 80.5159 419.637C80.4966 425.631 80.4964 431.625 80.511 437.619C80.5131 439.817 80.5084 442.014 80.4963 444.212C80.4808 447.217 80.4901 450.221 80.5055 453.226C80.4952 454.091 80.4849 454.956 80.4743 455.846C80.5634 463.742 83.4623 470.012 87.75 476.562C88.178 477.224 88.6059 477.885 89.0469 478.566C89.3614 479.039 89.6759 479.513 90 480C84.4499 480.099 78.9004 480.172 73.3496 480.22C71.4641 480.24 69.5787 480.267 67.6934 480.302C64.9725 480.351 62.2525 480.373 59.5312 480.391C58.2808 480.422 58.2808 480.422 57.005 480.453C49.981 480.456 44.8405 478.48 39.5391 473.852C38.9074 473.117 38.2758 472.382 37.625 471.625C36.9779 470.895 36.3308 470.166 35.6641 469.414C31.8035 463.813 31.709 458.265 31.7326 451.715C31.728 450.788 31.7235 449.862 31.7188 448.907C31.7062 445.807 31.7078 442.708 31.7095 439.608C31.7035 437.384 31.6967 435.159 31.6891 432.935C31.6714 426.896 31.6668 420.856 31.6655 414.817C31.6636 409.775 31.6562 404.733 31.6491 399.69C31.6338 388.474 31.6278 377.257 31.6292 366.04C31.6292 365.367 31.6293 364.695 31.6294 364.002C31.6295 363.329 31.6296 362.655 31.6296 361.961C31.6305 351.048 31.6113 340.136 31.5831 329.223C31.5544 318.008 31.5409 306.794 31.5423 295.579C31.5428 289.287 31.5371 282.994 31.5159 276.702C31.4966 270.784 31.4964 264.866 31.511 258.948C31.5131 256.778 31.5083 254.607 31.4963 252.437C31.4808 249.471 31.4901 246.506 31.5055 243.539C31.4901 242.256 31.4901 242.256 31.4743 240.946C31.5543 233.969 33.5372 228.776 38.1836 223.539C39.2993 222.592 39.2993 222.592 40.4375 221.625C41.1787 220.978 41.9199 220.331 42.6836 219.664C48.0768 215.79 52.8226 215.727 59.2383 215.805Z" fill="#0E85D1"/>
<path d="M200 296C215.84 296 231.68 296 248 296C248.375 316.75 248.375 316.75 248.478 323.284C248.513 324.997 248.549 326.709 248.586 328.422C248.597 329.308 248.609 330.195 248.62 331.108C248.64 331.96 248.66 332.812 248.681 333.69C248.694 334.428 248.708 335.165 248.722 335.924C249.044 338.325 249.733 339.943 251 342C253.283 343.142 254.635 343.153 257.174 343.205C258.047 343.226 258.92 343.246 259.819 343.266C260.737 343.283 261.656 343.299 262.602 343.316C263.445 343.335 264.288 343.354 265.157 343.373C268.313 343.441 271.469 343.501 274.625 343.562C281.679 343.707 288.733 343.851 296 344C296 359.84 296 375.68 296 392C274.75 392.25 274.75 392.25 268.058 392.298C266.304 392.327 264.55 392.358 262.797 392.391C261.435 392.392 261.435 392.392 260.045 392.394C256.311 392.479 253.724 392.599 250.426 394.426C248.203 398.439 248.396 402.278 248.391 406.797C248.375 407.638 248.359 408.479 248.343 409.346C248.291 412.481 248.272 415.615 248.25 418.75C248.167 425.762 248.085 432.775 248 440C232.16 440 216.32 440 200 440C199.625 418.688 199.625 418.688 199.522 411.968C199.487 410.211 199.451 408.455 199.414 406.699C199.403 405.786 199.391 404.873 199.38 403.932C199.36 403.06 199.34 402.187 199.319 401.288C199.306 400.531 199.292 399.773 199.278 398.993C199.103 396.684 199.103 396.684 197 394C194.291 393.097 192.599 392.853 189.804 392.795C188.952 392.774 188.099 392.754 187.221 392.734C186.33 392.717 185.438 392.701 184.52 392.684C183.286 392.656 183.286 392.656 182.027 392.627C178.955 392.559 175.884 392.499 172.812 392.438C165.944 392.293 159.076 392.149 152 392C152 376.16 152 360.32 152 344C172.75 343.625 172.75 343.625 179.284 343.522C180.997 343.487 182.709 343.451 184.422 343.414C185.308 343.403 186.195 343.391 187.108 343.38C187.96 343.36 188.812 343.34 189.69 343.319C190.428 343.306 191.165 343.292 191.924 343.278C194.352 342.953 195.948 342.336 198 341C198.903 338.291 199.147 336.599 199.205 333.804C199.226 332.952 199.246 332.099 199.266 331.221C199.283 330.33 199.299 329.438 199.316 328.52C199.335 327.697 199.354 326.874 199.373 326.027C199.441 322.955 199.501 319.884 199.562 316.812C199.707 309.944 199.851 303.076 200 296Z" fill="#E3EAEF"/>
<path d="M195.822 279.385C196.821 279.376 196.821 279.376 197.84 279.368C200.029 279.356 202.217 279.38 204.406 279.406C205.934 279.408 207.462 279.408 208.99 279.406C212.188 279.408 215.385 279.426 218.583 279.458C222.675 279.498 226.766 279.502 230.859 279.495C234.013 279.491 237.166 279.504 240.32 279.521C241.828 279.528 243.337 279.531 244.846 279.53C246.957 279.532 249.067 279.553 251.178 279.58C252.977 279.593 252.977 279.593 254.813 279.606C258.302 280.037 260.203 280.906 263 283C264.154 285.308 264.121 286.608 264.114 289.174C264.113 290.035 264.113 290.896 264.113 291.783C264.108 292.713 264.103 293.643 264.098 294.602C264.096 296.029 264.096 296.029 264.093 297.485C264.088 300.532 264.075 303.578 264.062 306.625C264.057 308.687 264.053 310.75 264.049 312.812C264.038 317.875 264.021 322.937 264 328C265.246 327.984 266.492 327.969 267.776 327.952C272.407 327.898 277.038 327.864 281.67 327.835C283.673 327.82 285.676 327.8 287.678 327.774C290.56 327.737 293.442 327.72 296.324 327.707C297.217 327.692 298.11 327.676 299.03 327.66C303.835 327.659 307.123 327.818 311 331C312.427 333.853 312.143 336.292 312.161 339.482C312.166 340.147 312.171 340.812 312.176 341.498C312.191 343.703 312.198 345.908 312.203 348.113C312.209 349.645 312.215 351.178 312.22 352.71C312.231 355.925 312.237 359.141 312.24 362.356C312.246 366.472 312.27 370.588 312.298 374.703C312.317 377.87 312.322 381.036 312.324 384.203C312.327 385.72 312.335 387.237 312.348 388.754C312.365 390.88 312.363 393.004 312.356 395.13C312.362 396.943 312.362 396.943 312.367 398.793C311.963 402.327 311.179 404.208 309 407C306.244 407.919 304.64 408.122 301.804 408.113C300.963 408.113 300.123 408.113 299.257 408.113C298.353 408.108 297.45 408.103 296.52 408.098C295.128 408.096 295.128 408.096 293.707 408.093C290.742 408.088 287.777 408.075 284.812 408.062C282.803 408.057 280.793 408.053 278.783 408.049C273.855 408.038 268.928 408.021 264 408C264.024 409.869 264.024 409.869 264.048 411.776C264.102 416.407 264.136 421.038 264.165 425.67C264.18 427.673 264.2 429.676 264.226 431.678C264.263 434.56 264.28 437.442 264.293 440.324C264.308 441.217 264.324 442.11 264.34 443.03C264.341 447.801 264.24 451.199 261 455C257.599 456.134 254.976 456.141 251.389 456.161C250.722 456.166 250.055 456.171 249.368 456.176C247.163 456.191 244.959 456.198 242.754 456.203C241.221 456.209 239.688 456.215 238.155 456.22C234.941 456.231 231.727 456.237 228.513 456.24C224.396 456.246 220.28 456.27 216.163 456.298C212.996 456.317 209.83 456.322 206.663 456.324C205.145 456.327 203.628 456.335 202.11 456.348C199.986 456.365 197.864 456.363 195.74 456.356C194.533 456.36 193.325 456.364 192.08 456.367C188.722 455.967 187.354 455.389 185 453C184.081 450.244 183.878 448.64 183.886 445.804C183.887 444.963 183.887 444.123 183.887 443.257C183.892 442.353 183.897 441.45 183.902 440.52C183.904 439.592 183.905 438.664 183.907 437.707C183.912 434.742 183.925 431.777 183.938 428.812C183.943 426.803 183.947 424.793 183.951 422.783C183.962 417.855 183.979 412.928 184 408C182.718 408.016 181.437 408.031 180.116 408.048C175.36 408.102 170.604 408.136 165.848 408.165C163.79 408.18 161.732 408.2 159.673 408.226C156.714 408.263 153.756 408.28 150.797 408.293C149.417 408.316 149.417 408.316 148.009 408.34C141.654 408.342 141.654 408.342 138.45 406.669C135.508 403.283 135.853 399.685 135.807 395.405C135.799 394.739 135.791 394.074 135.782 393.388C135.758 391.189 135.741 388.989 135.727 386.789C135.721 386.037 135.716 385.285 135.71 384.509C135.684 380.529 135.664 376.549 135.65 372.568C135.637 369.276 135.609 365.984 135.568 362.692C135.519 358.714 135.494 354.737 135.487 350.758C135.48 349.244 135.465 347.73 135.441 346.215C135.409 344.094 135.409 341.975 135.417 339.854C135.408 338.648 135.4 337.443 135.392 336.201C136.184 332.031 137.668 330.557 141 328C143.234 327.399 143.234 327.399 145.515 327.432C146.375 327.433 147.236 327.433 148.123 327.433C149.037 327.459 149.952 327.485 150.895 327.512C151.842 327.519 152.789 327.526 153.765 327.533C156.782 327.561 159.797 327.624 162.812 327.687C164.861 327.713 166.91 327.735 168.959 327.756C173.973 327.811 178.986 327.897 184 328C183.974 326.724 183.948 325.447 183.921 324.132C183.83 319.389 183.773 314.646 183.725 309.903C183.7 307.851 183.666 305.8 183.623 303.749C183.562 300.797 183.534 297.847 183.512 294.895C183.486 293.98 183.46 293.065 183.434 292.122C183.433 291.262 183.433 290.401 183.432 289.515C183.416 288.386 183.416 288.386 183.399 287.234C185.124 280.826 189.791 279.374 195.822 279.385ZM200 296C199.751 309.642 199.751 309.642 199.522 323.284C199.487 324.997 199.451 326.709 199.414 328.422C199.403 329.308 199.391 330.195 199.38 331.108C199.36 331.96 199.34 332.812 199.319 333.69C199.306 334.428 199.292 335.165 199.278 335.924C198.953 338.352 198.336 339.948 197 342C194.291 342.903 192.599 343.147 189.804 343.205C188.952 343.225 188.099 343.246 187.221 343.266C186.33 343.283 185.438 343.299 184.52 343.316C183.697 343.335 182.874 343.354 182.027 343.373C178.955 343.441 175.884 343.501 172.812 343.562C165.944 343.707 159.076 343.851 152 344C152 359.84 152 375.68 152 392C165.642 392.249 165.642 392.249 179.284 392.478C180.997 392.513 182.709 392.549 184.422 392.586C185.308 392.597 186.195 392.609 187.108 392.62C187.96 392.64 188.812 392.66 189.69 392.681C190.428 392.694 191.165 392.708 191.924 392.722C194.325 393.044 195.943 393.732 198 395C199.142 397.283 199.153 398.635 199.205 401.174C199.226 402.047 199.246 402.92 199.266 403.819C199.283 404.737 199.299 405.655 199.316 406.602C199.335 407.445 199.354 408.288 199.373 409.157C199.441 412.313 199.501 415.469 199.562 418.625C199.707 425.679 199.851 432.732 200 440C215.84 440 231.68 440 248 440C248.17 426.029 248.17 426.029 248.298 412.058C248.327 410.304 248.358 408.55 248.391 406.797C248.392 405.889 248.393 404.981 248.394 404.045C248.479 400.311 248.599 397.724 250.426 394.426C254.439 392.203 258.278 392.396 262.797 392.391C263.638 392.375 264.479 392.359 265.346 392.343C268.481 392.291 271.615 392.272 274.75 392.25C281.762 392.167 288.775 392.085 296 392C296 376.16 296 360.32 296 344C281.984 343.75 281.984 343.75 267.968 343.522C266.211 343.487 264.455 343.451 262.699 343.414C261.786 343.403 260.873 343.391 259.932 343.38C259.06 343.36 258.187 343.339 257.288 343.319C256.152 343.299 256.152 343.299 254.993 343.278C253 343 253 343 250 341C249.097 338.29 248.853 336.599 248.795 333.804C248.774 332.952 248.754 332.099 248.734 331.221C248.709 329.884 248.709 329.884 248.684 328.52C248.665 327.697 248.646 326.874 248.627 326.027C248.559 322.955 248.499 319.884 248.438 316.812C248.221 306.51 248.221 306.51 248 296C232.16 296 216.32 296 200 296Z" fill="#062D42"/>
<path d="M400 192C407.472 191.885 414.94 191.785 422.412 191.725C424.949 191.7 427.486 191.666 430.023 191.623C433.688 191.562 437.351 191.534 441.016 191.512C442.135 191.486 443.254 191.46 444.407 191.434C454.508 191.43 464.067 194.243 471.539 201.332C477.474 208.108 480.352 214.94 480 224C479.336 227.156 479.336 227.156 478.375 230.5C478.007 231.81 477.639 233.119 477.273 234.43C477.071 235.149 476.868 235.868 476.659 236.608C475.652 240.262 474.718 243.935 473.776 247.606C471.709 255.647 469.565 263.627 467.055 271.543C463.274 283.934 460.114 296.522 456.875 309.063C455.101 315.932 453.204 322.719 451.051 329.48C449.634 334.226 448.417 339.016 447.188 343.813C445.07 352.07 442.796 360.264 440.375 368.438C437.669 377.574 435.195 386.728 433 396C432.67 396 432.34 396 432 396C431.997 395.391 431.993 394.782 431.99 394.154C431.909 379.296 431.816 364.438 431.712 349.58C431.662 342.395 431.616 335.209 431.578 328.024C431.545 321.758 431.505 315.491 431.457 309.225C431.432 305.91 431.411 302.596 431.397 299.281C431.38 295.571 431.351 291.861 431.319 288.151C431.317 287.065 431.315 285.979 431.312 284.86C431.179 272.659 429.141 262.301 421.098 252.738C414.594 246.38 408.987 244.851 400 241C400 224.83 400 208.66 400 192Z" fill="#0E85D1"/>
<path d="M194 53C201.373 57.8025 205.558 64.6538 208 73C208.457 77.7009 208.416 82.404 208.438 87.125C208.47 88.3806 208.503 89.6361 208.537 90.9297C208.586 99.5613 207.211 106.404 203 114C202.34 114.66 201.68 115.32 201 116C200.863 118.15 200.863 118.15 201.188 120.5C201.264 121.294 201.34 122.088 201.418 122.906C201.86 125.378 201.86 125.378 205 127C207.39 127.224 209.789 127.358 212.188 127.438C221.538 127.925 227.002 129.731 234.141 135.793C240.867 143.777 240.497 151.576 240.25 161.5C240.23 162.909 240.212 164.318 240.195 165.727C240.148 169.151 240.077 172.576 240 176C234.72 176 229.44 176 224 176C223.951 174.086 223.902 172.171 223.852 170.199C223.777 167.695 223.701 165.191 223.625 162.688C223.594 161.425 223.563 160.162 223.531 158.861C223.493 157.653 223.454 156.444 223.414 155.199C223.383 154.084 223.351 152.968 223.319 151.819C223.195 148.796 223.195 148.796 221 146C218.039 145.013 215.549 144.857 212.453 144.761C204.315 144.48 198.057 143.944 192.043 138.098C189.139 134.922 186.804 131.923 185 128C174.46 126.604 174.46 126.604 164.902 129.605C163.748 131.691 162.89 133.792 162 136C154.333 143.667 146.669 144.34 136.391 144.496C132.359 145.095 131.456 145.824 129 149C128.361 151.987 128.361 151.987 128.391 155.297C128.358 156.502 128.326 157.707 128.293 158.949C128.272 160.831 128.272 160.831 128.25 162.75C128.206 164.655 128.206 164.655 128.16 166.598C128.089 169.731 128.042 172.866 128 176C122.72 176 117.44 176 112 176C111.908 171.873 111.828 167.749 111.78 163.622C111.76 162.222 111.733 160.821 111.698 159.421C111.467 149.894 111.678 142.871 118.184 135.539C118.927 134.907 119.671 134.276 120.438 133.625C121.549 132.654 121.549 132.654 122.684 131.664C128.206 127.697 133.637 127.637 140.205 127.434C145.451 127.292 145.451 127.292 150 125C151.235 122.04 151.315 119.172 151 116C149.978 113.776 148.803 111.965 147.324 110.02C142.886 103.251 143.633 95.447 143.625 87.6875C143.601 86.4068 143.576 85.1261 143.551 83.8066C143.528 76.2728 144.115 70.522 148 64C148.458 63.2021 148.915 62.4041 149.387 61.582C160.448 46.5341 178.002 44.0963 194 53Z" fill="#082E43"/>
<path d="M96 32C106.56 32 117.12 32 128 32C128.203 44.5263 128.369 57.0514 128.466 69.579C128.513 75.3963 128.577 81.2124 128.679 87.0291C128.777 92.6442 128.831 98.2582 128.854 103.874C128.871 106.015 128.903 108.156 128.952 110.296C129.319 127.131 129.319 127.131 126.042 131.776C123.764 133.533 121.556 134.708 119 136C114.2 141.248 112.89 145.873 112.684 152.855C112.663 153.517 112.642 154.179 112.621 154.86C112.555 156.969 112.496 159.078 112.438 161.188C112.394 162.619 112.351 164.051 112.307 165.482C112.199 168.988 112.1 172.494 112 176C117.28 176 122.56 176 128 176C128 183.92 128 191.84 128 200C117.44 200 106.88 200 96 200C96 144.56 96 89.12 96 32Z" fill="#B3D6EF"/>
<path d="M267.822 47.3847C268.488 47.3792 269.154 47.3736 269.84 47.3679C272.029 47.3562 274.217 47.3804 276.406 47.4062C277.934 47.4079 279.462 47.4079 280.99 47.4061C284.188 47.4078 287.385 47.4264 290.583 47.458C294.675 47.4977 298.766 47.502 302.859 47.4945C306.013 47.4914 309.166 47.5036 312.32 47.5206C313.828 47.5277 315.337 47.5308 316.846 47.53C318.957 47.5318 321.067 47.5532 323.178 47.5801C324.977 47.5927 324.977 47.5927 326.813 47.6056C330.302 48.0373 332.203 48.9064 335 51C336.59 54.1801 336.184 57.6197 336.203 61.1133C336.209 61.9198 336.215 62.7264 336.22 63.5574C336.23 65.2663 336.236 66.9753 336.24 68.6843C336.25 71.2918 336.281 73.8985 336.312 76.5058C336.319 78.1666 336.324 79.8274 336.328 81.4883C336.34 82.2655 336.353 83.0428 336.366 83.8436C336.347 88.3911 335.924 91.4389 333 95C329.599 96.1338 326.976 96.1408 323.389 96.1611C322.722 96.1661 322.055 96.171 321.368 96.1762C319.163 96.1907 316.959 96.1976 314.754 96.2031C313.221 96.2089 311.688 96.2146 310.155 96.2204C306.941 96.2309 303.727 96.2367 300.513 96.2402C296.396 96.2457 292.28 96.2697 288.163 96.2982C284.996 96.3168 281.83 96.322 278.663 96.3235C277.145 96.3266 275.628 96.3346 274.11 96.3477C271.986 96.3648 269.864 96.3629 267.74 96.3564C266.533 96.3601 265.325 96.3637 264.08 96.3675C260.722 95.9668 259.354 95.3888 257 93C255.042 87.1253 255.693 80.4047 255.65 74.2402C255.633 72.5002 255.606 70.7602 255.568 69.0205C255.513 66.5055 255.491 63.9921 255.477 61.4765C255.454 60.7024 255.431 59.9283 255.408 59.1307C255.423 55.3199 255.743 53.3295 258.11 50.2936C261.646 47.487 263.353 47.3771 267.822 47.3847Z" fill="#062D42"/>
<path d="M368 64C373.28 64 378.56 64 384 64C384 122.08 384 180.16 384 240C378.72 240 373.44 240 368 240C368 181.92 368 123.84 368 64Z" fill="#E4EBF0"/>
<path d="M432 192C461.703 192 461.703 192 471.539 201.332C477.474 208.108 480.352 214.94 480 224C479.336 227.156 479.336 227.156 478.375 230.5C478.005 231.813 477.637 233.127 477.27 234.441C476.965 235.521 476.965 235.521 476.655 236.622C475.664 240.222 474.75 243.841 473.825 247.459C471.191 257.747 468.31 267.909 465 278C462.711 275.711 462.736 275.081 462.312 272C460.856 265.098 457.175 259.61 451.738 255.141C445.208 250.892 439.927 249.982 432 248C432 229.52 432 211.04 432 192Z" fill="#3795D1"/>
<path d="M368 64C370.64 64 373.28 64 376 64C376 122.08 376 180.16 376 240C373.36 240 370.72 240 368 240C368 181.92 368 123.84 368 64Z" fill="#B4D7F0"/>
<path d="M180 64C185.675 65.9644 189.314 69.628 192 75C192.271 79.0777 192.232 83.1644 192.25 87.25C192.271 88.3831 192.291 89.5162 192.313 90.6836C192.344 97.392 192.264 102.503 187.465 107.645C181.772 111.998 178.128 112.79 171 112C166.575 109.788 163.805 107.052 161 103C159.344 98.0311 159.732 92.8906 159.688 87.6875C159.659 86.5589 159.629 85.4304 159.6 84.2676C159.551 77.8626 159.605 73.8198 164 69C169.416 64.229 172.909 63.3532 180 64Z" fill="#E0E8ED"/>
<path d="M256 208C282.4 208 308.8 208 336 208C336 213.28 336 218.56 336 224C309.6 224 283.2 224 256 224C256 218.72 256 213.44 256 208Z" fill="#062D42"/>
<path d="M256 176C282.4 176 308.8 176 336 176C336 181.28 336 186.56 336 192C309.6 192 283.2 192 256 192C256 186.72 256 181.44 256 176Z" fill="#062D42"/>
<path d="M256 144C282.4 144 308.8 144 336 144C336 149.28 336 154.56 336 160C309.6 160 283.2 160 256 160C256 154.72 256 149.44 256 144Z" fill="#062D42"/>
<path d="M256 112C282.4 112 308.8 112 336 112C336 117.28 336 122.56 336 128C309.6 128 283.2 128 256 128C256 122.72 256 117.44 256 112Z" fill="#062D42"/>
<path d="M164 208C173.957 205.743 186.033 203.682 195.202 209.365C206.122 217.56 215.46 228.406 224 239C224 239.33 224 239.66 224 240C214.043 242.257 201.967 244.318 192.798 238.635C181.878 230.44 172.54 219.594 164 209C164 208.67 164 208.34 164 208Z" fill="#B4D7EF"/>
<path d="M152 344C157.28 344 162.56 344 168 344C168 359.84 168 375.68 168 392C162.72 392 157.44 392 152 392C152 376.16 152 360.32 152 344Z" fill="#B4D7F0"/>
<path d="M272 64C287.84 64 303.68 64 320 64C320 69.28 320 74.56 320 80C304.16 80 288.32 80 272 80C272 74.72 272 69.44 272 64Z" fill="#E4EBF0"/>
<path d="M200 400C205.28 400 210.56 400 216 400C216 413.2 216 426.4 216 440C210.72 440 205.44 440 200 440C200 426.8 200 413.6 200 400Z" fill="#B4D7F0"/>
<path d="M200 296C205.28 296 210.56 296 216 296C216 309.2 216 322.4 216 336C210.72 336 205.44 336 200 336C200 322.8 200 309.6 200 296Z" fill="#B4D7F0"/>
</svg>
