<svg width="200" height="150" viewBox="0 0 200 150" fill="none" xmlns="http://www.w3.org/2000/svg">
<path fill-rule="evenodd" clip-rule="evenodd" d="M77.1655 0.414796C72.5905 1.6998 70.0645 6.9248 71.7555 11.6028C73.9105 17.5628 72.2825 21.2628 67.5035 21.2628C64.8285 21.2628 53.9495 28.9848 53.9495 30.8838C53.9495 31.5908 52.1245 33.6348 49.8945 35.4278C44.5015 39.7608 45.8975 45.0568 54.7725 53.9318C58.0975 57.2568 57.8635 58.7428 53.0485 64.8638C51.9525 66.2578 50.7725 69.8328 50.3845 72.9358C49.8155 77.4878 48.8835 79.4928 45.2805 83.9168C42.8565 86.8938 41.0915 89.6838 41.3595 90.1168C42.3535 91.7258 37.9775 97.2168 35.2305 97.8058C27.4785 99.4668 24.0645 101.533 17.3325 108.633C12.6545 113.566 8.64452 116.752 5.08052 118.365C-0.218482 120.763 -0.218482 120.763 0.125518 127.822C0.521518 135.963 3.03352 141.268 5.51652 139.207C6.30452 138.553 6.94952 137.16 6.94952 136.112C6.94952 132.743 12.8095 122.471 16.1815 119.929C22.6395 115.061 38.2495 106.263 40.4285 106.263C41.6515 106.263 44.4065 104.904 46.5505 103.242C48.6955 101.581 52.5875 98.8138 55.1995 97.0928C57.8115 95.3718 59.9645 93.6938 59.9825 93.3638C60.2195 89.0878 64.2065 88.1018 67.7415 91.4448C69.7805 93.3738 73.0545 95.9078 75.0155 97.0748C81.9565 101.208 82.5675 102.587 79.3355 106.824C76.7855 110.167 76.4575 111.544 75.8155 121.636C75.0585 133.531 74.4775 136.434 72.1305 140.073C70.8525 142.055 70.8405 142.569 72.0455 143.696C73.8885 145.418 90.2445 149.479 93.7225 149.076C97.4475 148.646 97.9085 145.578 94.4465 144.262C92.9905 143.708 91.1605 142.617 90.3795 141.836C89.5985 141.055 87.7635 139.475 86.3015 138.325C82.9915 135.722 83.8475 126.845 88.8935 111.423C90.5745 106.286 91.9355 101.111 91.9185 99.9228C91.8735 96.8158 84.6855 82.9258 80.9685 78.7628C75.4675 72.6008 74.6845 66.3568 78.5285 59.2938C81.4035 54.0128 87.5245 52.0208 101.433 51.8408C107.904 51.7568 108.813 50.8368 107.52 45.6838C106.785 42.7568 100.746 42.2328 97.8585 44.8448C94.6615 47.7388 84.7945 45.7998 86.0405 42.5218C87.0675 39.8228 85.8465 30.8068 83.9825 27.3248C82.0785 23.7668 82.6975 21.2628 85.4805 21.2628C87.0185 21.2628 88.2245 20.5758 88.5535 19.5128C88.8515 18.5508 89.5055 16.9938 90.0055 16.0538C90.5065 15.1128 90.6425 12.9768 90.3085 11.3058C89.9605 9.5658 90.1955 7.6708 90.8595 6.8708C93.8185 3.3058 83.7595 -1.4372 77.1655 0.414796ZM161.45 4.2628C161.11 4.8128 159.621 5.2958 158.141 5.3358C154.607 5.4318 149.699 8.3308 148.475 11.0448C147.939 12.2338 146.315 13.6978 144.867 14.2968C140.791 15.9858 137.457 21.0628 137.832 25.0128C138.15 28.3768 147.334 24.4448 154.354 17.9398C157.045 15.4448 157.322 15.3848 158.56 17.0158C161.83 21.3238 158.001 26.1758 146.92 31.7658C143.912 33.2828 141.225 34.8188 140.95 35.1768C140.675 35.5358 138.133 37.5068 135.301 39.5568C129.667 43.6358 127.95 48.6488 127.95 61.0178C127.95 64.9898 127.4 66.7628 125.45 69.0808C122.568 72.5058 122.389 73.5528 124.402 75.2228C127.49 77.7858 129.73 75.5238 131.408 68.1498C135.323 50.9338 137.211 47.1668 143.519 43.9768C148.017 41.7028 149.095 41.4438 148.59 42.7578C148.238 43.6758 147.95 46.3268 147.95 48.6488C147.95 53.0318 146.831 55.0978 136.661 69.4978C135.558 71.0598 134.76 74.2788 134.579 77.8968C133.916 91.1458 129.548 106.263 126.383 106.263C124.564 106.263 117.105 114.386 114.198 119.533C111.141 124.944 107.032 129.263 104.943 129.263C104.045 129.263 101.767 130.647 99.8795 132.338C96.4495 135.412 96.4495 135.412 99.1995 137.79C100.713 139.097 101.95 141.01 101.95 142.041C101.95 145.358 106.438 148.507 111.917 149.034C117.731 149.592 118.885 147.577 114.424 144.654C112.521 143.407 112.065 142.478 112.574 140.881C112.946 139.716 113.198 137.348 113.134 135.618C113.002 132.016 128.6 115.808 131.228 116.816C134.011 117.884 138.179 112.775 144.005 101.153C147.283 94.6138 150.202 89.2628 150.491 89.2628C150.78 89.2628 153.214 90.3768 155.901 91.7378C158.587 93.0988 162.69 94.5178 165.019 94.8898C169.253 95.5668 169.253 95.5668 166.351 97.6608C164.756 98.8128 162.55 100.689 161.45 101.831C156.693 106.77 150.699 111.621 149.139 111.796C145.589 112.194 137.95 116.68 137.95 118.366C137.95 118.766 139.3 120.368 140.95 121.925C142.6 123.482 143.961 125.208 143.975 125.76C144.031 128.037 151.121 136.377 152.737 136.066C154.169 135.79 154.392 134.444 154.267 126.801C154.148 119.525 154.43 117.618 155.785 116.568C160.26 113.099 173.391 106.112 176.076 105.772C190.708 103.921 185.105 88.8978 166.045 78.8828C162.143 76.8318 158.95 74.9468 158.95 74.6928C158.95 72.0308 162.745 61.2538 164.295 59.5128C166.878 56.6128 168.333 56.6728 170.358 59.7628C172.839 63.5488 174.606 62.8998 185.284 54.2818C190.693 49.9158 195.951 46.0798 196.97 45.7568C200.83 44.5318 199.545 37.8008 195.297 36.9888C192.737 36.4998 189.95 39.2538 189.95 42.2738C189.95 43.1358 187.362 45.3698 184.2 47.2378C181.038 49.1068 177.735 51.2318 176.861 51.9588C175.514 53.0798 171.913 46.3948 172.846 44.5068C172.916 44.3668 171.643 41.6168 170.018 38.3978C166.131 30.6978 167.35 24.5718 172.511 25.8678C178.013 27.2478 179.297 9.3908 174.004 5.1058C171.521 3.0948 162.544 2.4918 161.45 4.2628ZM60.9345 43.0128C60.9105 48.9068 59.5865 50.0068 57.2605 46.0658C55.2845 42.7158 55.2845 42.7158 57.3665 41.0338C60.4245 38.5648 60.9515 38.8568 60.9345 43.0128Z" fill="url(#paint0_linear_202_25)"/>
<defs>
<linearGradient id="paint0_linear_202_25" x1="99.6365" y1="0" x2="99.6365" y2="149.127" gradientUnits="userSpaceOnUse">
<stop stop-color="#09A1CB"/>
<stop offset="1" stop-color="#042E65"/>
</linearGradient>
</defs>
</svg>
