<svg width="2790" height="2654" viewBox="0 0 2790 2654" fill="none" xmlns="http://www.w3.org/2000/svg">
<path fill-rule="evenodd" clip-rule="evenodd" d="M1395 2654C2165.44 2654 2790 2059.88 2790 1327C2790 594.118 2165.44 0 1395 0C624.562 0 0 594.118 0 1327C0 2059.88 624.562 2654 1395 2654ZM1889.37 1899.71C1749.99 1983.55 1576.46 2033.26 1388.37 2033.26C1206.19 2033.26 1037.68 1986.63 900.632 1907.53C969.349 2103.18 1164.13 2244.26 1393.67 2244.26C1626.25 2244.26 1823.15 2099.41 1889.37 1899.71ZM811.26 1191.71C916.482 1191.71 1013.55 1221.27 1091.53 1271.13C1054.48 1152.38 944.335 1066.26 814.228 1066.26C685.818 1066.26 576.862 1150.14 538.421 1266.48C615.088 1219.44 709.354 1191.71 811.26 1191.71ZM2251.58 1271.13C2173.61 1221.27 2076.53 1191.71 1971.31 1191.71C1869.41 1191.71 1775.14 1219.44 1698.47 1266.48C1736.91 1150.14 1845.87 1066.26 1974.28 1066.26C2104.39 1066.26 2214.53 1152.38 2251.58 1271.13Z" fill="#09A1CB"/>
</svg>
