<svg width="502" height="502" viewBox="0 0 502 502" fill="none" xmlns="http://www.w3.org/2000/svg">
<path d="M501.652 141.539V360.117C501.652 438.277 438.281 501.648 360.121 501.648H141.539C63.3711 501.648 0 438.277 0 360.117V141.539C0 63.3672 63.3711 0 141.539 0H360.121C438.281 0 501.652 63.3672 501.652 141.539Z" fill="#100F0D"/>
<path d="M220.422 296.43V205.219L299.41 250.828L220.422 296.43ZM396.5 177.641C393 164.559 382.699 154.258 369.621 150.758C345.91 144.398 250.832 144.398 250.832 144.398C250.832 144.398 155.742 144.398 132.031 150.758C118.949 154.258 108.652 164.559 105.152 177.641C98.8008 201.348 98.8008 250.828 98.8008 250.828C98.8008 250.828 98.8008 300.301 105.152 324.008C108.652 337.09 118.949 347.398 132.031 350.891C155.742 357.25 250.832 357.25 250.832 357.25C250.832 357.25 345.91 357.25 369.621 350.891C382.699 347.398 393 337.09 396.5 324.008C402.859 300.301 402.859 250.828 402.859 250.828C402.859 250.828 402.859 201.348 396.5 177.641Z" fill="white"/>
</svg>
