<svg width="281" height="200" viewBox="0 0 281 200" fill="none" xmlns="http://www.w3.org/2000/svg">
<path d="M39.1112 92.3038H39V42.6656C63.8 48.2656 72 70.6656 72 86.6656C71.3692 85.1742 69.0084 82.8703 67.5208 81.4843V181.579C67.5208 183.498 67.1397 184.842 66.3774 185.61C65.6737 186.314 64.4424 186.666 62.6833 186.666H43.9487C42.1896 186.666 40.9289 186.314 40.1666 185.61C39.463 184.842 39.1112 183.498 39.1112 181.579V92.3038Z" fill="#041524"/>
<g filter="url(#filter0_f_1_241)">
<path d="M44.5606 94.1673H44.5V48.6656C58.0273 53.7989 62.5 74.3323 62.5 88.9989C62.1559 87.6318 60.8682 85.5199 60.0568 84.2494V176.003C60.0568 177.762 59.8489 178.994 59.4331 179.698C59.0493 180.343 58.3777 180.666 57.4181 180.666H47.1993C46.2398 180.666 45.5521 180.343 45.1363 179.698C44.7525 178.994 44.5606 177.762 44.5606 176.003V94.1673Z" fill="#19344C"/>
</g>
<path fill-rule="evenodd" clip-rule="evenodd" d="M163.233 43.6843C162.482 44.4784 162.107 45.8681 162.107 47.8534L162.107 132.072C163.487 146.338 171.717 159.75 189.889 171.592C190.034 170.864 190.107 170.019 190.107 169.057L190.107 139.643L190 139.643C189.641 139.592 189.308 139.521 189 139.431C186.305 138.64 185.5 136.384 185.5 133.731L185.5 126.834C185.5 124.766 184.453 123.775 183.429 122.807C182.502 121.929 181.594 121.07 181.5 119.444C181.397 117.648 181.963 116.498 182.519 115.368C183.004 114.385 183.48 113.418 183.5 112.055C183.527 110.198 182.568 109.063 181.645 107.97C180.727 106.884 179.845 105.84 180 104.173C180.195 102.07 181.579 100.714 182.981 99.3423C184.294 98.0564 185.622 96.7559 186 94.8124C186.388 92.8128 185.856 91.6517 185.32 90.486C184.911 89.5937 184.5 88.6987 184.5 87.4228C184.5 83.622 187.943 82.487 190 82.148L190 82.4963L190.107 82.4963L190.107 47.8534C190.107 45.8681 189.76 44.4784 189.066 43.6843C188.315 42.9563 187.072 42.5923 185.339 42.5923L166.874 42.5923C165.141 42.5923 163.927 42.9563 163.233 43.6843ZM156.5 136.166C156.5 136.166 143 152.666 141 161.166C151 171.166 159 181.666 162.5 187.166L214 187.166C181.113 176.38 168.412 165.311 156.5 136.166Z" fill="url(#paint0_linear_1_241)"/>
<path d="M155.5 109.666C153 108.666 149.5 112.166 149.5 114.666C149.5 117.166 150.18 118.947 150 121.166C149.728 124.514 144.5 129.666 144.5 129.666C144.5 129.666 134.901 139.689 131.5 147.666C124.276 164.611 133.5 194.666 133.5 194.666C133.5 194.666 128.781 161.666 143 145.166C148.587 138.683 155.5 127.166 155.5 127.166C160.107 118.557 158 110.666 155.5 109.666Z" fill="url(#paint1_radial_1_241)"/>
<path d="M92 32.6656C79 23.6656 35.0729 20.9034 0 34.1656C0 34.1656 59 20.6656 77.5 77.1656C79.6266 83.6605 76.1743 87.9612 77.5 94.6656C78.2547 98.4822 79.9543 100.313 80.5 104.166C81.4996 111.222 75.8676 115.229 77.5 122.166C78.6209 126.929 80.6891 129.16 83.5 133.166C86.5181 137.466 89.8563 138.625 92.5 143.166C94.8 147.116 95.3858 149.732 96.5 154.166C98.3143 161.384 98 173.166 98 173.166L103 178.666C103 165.166 104.5 147.166 96.5 136.666C91.5875 130.218 83.7861 128.322 83.5 118.666C83.3443 113.41 88.6557 111.421 88.5 106.166C88.355 101.271 83.9206 99.5446 83.5 94.6656C83.0485 89.4274 86.9522 86.923 87 81.6656C87.0269 78.7109 86.6218 77.0543 86 74.1656C83.8591 64.2197 80.0931 59.1325 73.766 51.1656C66.5204 42.0423 50 32.1656 50 32.1656C47.3177 30.8266 49.0944 29.3233 51.234 29.6656C63.734 31.6656 93.2353 61.7946 91.3596 78.1656C90.7059 83.8711 87.2914 90.0514 88.5 95.6656C89.896 102.15 94.3723 106.897 101 107.166C107.17 107.415 112 104.166 114 98.1656C115.442 93.8411 117.942 90.1651 122.5 90.1656C127.334 90.1661 129 95.6656 130 100.166C131 104.664 134.92 106.568 140.5 106.166C146.974 105.699 154.905 102.572 155.5 94.6656C155.954 88.6264 156.198 81.5802 150.5 75.6656C142.495 67.3556 130.056 67.9267 119 59.6656C108.815 52.0552 105 41.6656 92 32.6656Z" fill="url(#paint2_linear_1_241)"/>
<path d="M119 59.6656C108.815 52.0552 105 41.6656 92 32.6656C85.4647 28.1411 71.1133 25.1931 54 25.0649C50.5 25.0649 50 28.9058 54 30.4488C67.5953 35.6933 93.108 62.9061 91.3596 78.1656C90.7059 83.8711 87.2914 90.0514 88.5 95.6656C89.896 102.15 94.3723 106.897 101 107.166C107.17 107.415 112 104.166 114 98.1656C115.441 93.8411 117.942 90.1651 122.5 90.1656C127.334 90.1661 129 95.6656 130 100.166C131 104.664 134.92 106.568 140.5 106.166C146.974 105.699 154.905 102.572 155.5 94.6656C155.954 88.6264 156.198 81.5802 150.5 75.6656C142.495 67.3556 130.056 67.9267 119 59.6656Z" fill="url(#paint3_linear_1_241)"/>
<g filter="url(#filter1_f_1_241)">
<path d="M114.742 59.0045C107.346 52.3314 104.111 44.3039 94.6717 36.4124C89.9264 32.4453 79.9706 28.778 67.5445 28.6656C65.0031 28.6656 64.64 32.0334 67.5445 33.3864C77.4162 37.9849 98.0177 64.0379 96.7482 77.4179C96.2735 82.4206 93.7942 87.8397 94.6717 92.7624C95.6854 98.4483 96.8593 100.418 101.672 100.654C106.152 100.873 109.659 98.0233 111.111 92.7624C112.158 88.9705 114.37 83.3487 117.68 83.3491C121.191 83.3496 129.274 84.7198 130 88.6656C130.726 92.6101 136.053 99.5184 140.105 99.1656C144.806 98.7562 152.068 97.0986 152.5 90.1656C152.83 84.8702 151.637 80.3517 147.5 75.1656C141.687 67.8792 122.77 66.248 114.742 59.0045Z" fill="#47E3F3"/>
</g>
<g filter="url(#filter2_f_1_241)">
<path d="M115.288 64.4578C107.831 58.3263 104.57 50.005 95.0522 42.7539C90.2677 39.1086 87.4943 35.6656 82.7706 35.6656C80.2082 35.6656 77.9527 41.5107 80.8811 42.7539C90.8342 46.9793 103.89 64.3988 102.61 76.6931C102.132 81.2898 96.8443 84.6562 97.4141 87.569C97.9839 90.4818 98.2304 94.4377 103.083 94.654C107.599 94.8553 107.19 92.4031 108.654 87.569C110.514 81.4258 117.223 78.195 120.56 78.1954C127.646 78.1954 131.425 81.0307 133.787 84.8112C134.519 88.4356 132.993 94.9782 137.079 94.654C141.818 94.2779 144.061 92.4411 144.496 86.0707C144.582 84.8112 143.154 81.543 138.983 76.7778C133.122 70.0826 123.382 71.1136 115.288 64.4578Z" fill="#E7FFF5"/>
</g>
<path d="M125.5 155.666C123.504 168.027 127 192.666 127 192.666L124.964 191.701L121.475 190.049L119.254 188.997L116.931 187.896L108 183.666C108 183.666 109.996 163.91 107.5 151.666C106.106 144.829 106.302 141.659 102 136.166C99.6105 133.114 97.7867 131.22 94.5 129.166C90.5 126.666 87.7145 122.544 88 118.166C88.2222 114.757 88.8787 113.553 92 112.166C96 110.388 101 112.742 107.5 112.166C114.738 111.523 115.32 103.546 122.5 104.666C128.256 105.563 129.906 111.54 135.5 113.166C139.438 114.31 141.734 111.639 144.5 114.666C147.279 117.706 145.622 121.666 144.5 123.666C142.944 126.438 139.651 127.825 137.5 130.166C128.791 139.644 127.552 142.958 125.5 155.666Z" fill="url(#paint4_radial_1_241)"/>
<g filter="url(#filter3_f_1_241)">
<path d="M132.479 133.789C126.327 142.718 125.452 145.839 124.003 157.81C122.764 168.041 124.52 187.2 124.964 191.701L121.475 190.049L119.254 188.997L111.641 184.187C111.641 184.187 113.052 165.577 111.288 154.042C110.304 147.602 110.442 144.616 107.403 139.441C105.715 136.566 104.427 134.782 102.106 132.847C99.2801 130.492 94.2983 125.79 94.5 121.666C94.657 118.455 95.7952 116.472 98 115.166C100.825 113.491 106.697 117.376 111.288 116.832C116.401 116.227 116.812 108.712 121.884 109.767C125.949 110.612 127.115 116.243 131.066 117.774C133.848 118.852 139.546 113.981 141.5 116.832C143.463 119.696 140 124.666 138 125.724C136 128.166 133.998 131.584 132.479 133.789Z" fill="#47E3F3"/>
</g>
<g filter="url(#filter4_f_1_241)">
<path d="M125.976 137.335C122.374 145.727 121.862 148.66 121.014 159.91C120.363 168.539 121.124 183.927 121.475 190.049L119.254 188.997L116.931 187.896L113.778 184.698C113.778 184.698 114.603 167.209 113.571 156.369C112.995 150.316 113.076 147.511 111.297 142.647C110.309 139.946 109.555 138.269 108.196 136.45C106.542 134.237 105.39 130.588 105.508 126.712C105.6 123.695 105.872 122.628 107.162 121.4C108.816 119.827 110.884 121.911 113.571 121.4C116.564 120.832 116.805 113.77 119.773 114.761C122.153 115.555 122.836 120.847 125.149 122.286C126.777 123.299 127.726 120.934 128.87 123.614C130.019 126.305 129.334 129.811 128.87 131.581C128.227 134.035 126.865 135.263 125.976 137.335Z" fill="#E7FFF5"/>
</g>
<g filter="url(#filter5_f_1_241)">
<path d="M119.895 154.666L116.294 151.397C116.294 151.397 116.672 144.222 116.199 139.775C115.935 137.292 115.972 136.141 115.157 134.145C114.704 133.037 112.446 133.997 111 133.166C108.557 131.761 107.18 129.156 108.5 126.666C109.633 124.527 111.742 127.311 112.5 126.666C113.258 126.02 114.967 125.638 116.199 125.429C117.571 125.195 117.681 122.298 119.042 122.705C120.133 123.03 120.446 125.201 121.506 125.792C122.252 126.207 125.476 124.692 126 125.792C126.527 126.896 126.213 128.334 126 129.061C125.705 130.067 122.292 131.116 121.885 131.966C120.234 135.409 119.999 136.612 119.61 141.227C119.232 145.717 119.895 154.666 119.895 154.666Z" fill="#E7FFF5"/>
</g>
<path d="M222.5 185.666L226 181.666C226 181.666 231.312 184.512 230.5 187.166C229.882 189.185 228.092 190.453 226 190.166C223.794 189.863 222.5 185.666 222.5 185.666Z" fill="url(#paint5_radial_1_241)"/>
<path d="M224.5 177.666C222.932 175.426 223 165.166 223 165.166C223 165.166 224.599 170.142 225.5 170.666C227.604 171.887 231.357 170.022 233 171.666C235.347 174.013 235.523 177.009 233 179.166C230.438 181.356 226.433 180.427 224.5 177.666Z" fill="url(#paint6_linear_1_241)"/>
<circle cx="220" cy="175.166" r="2.5" fill="#131253"/>
<circle cx="217" cy="164.166" r="3.5" fill="url(#paint7_radial_1_241)"/>
<circle cx="208" cy="153.166" r="3.5" fill="url(#paint8_radial_1_241)"/>
<path d="M204.5 142.166C204.5 144.099 202.933 146.166 201 146.166C199.067 146.166 197 144.099 197 142.166C197 140.233 198.567 138.166 200.5 138.166C202.433 138.166 204.5 140.233 204.5 142.166Z" fill="url(#paint9_radial_1_241)"/>
<path d="M199.448 129.666C199.448 131.599 196.055 135.666 194.122 135.666C192.189 135.666 189.622 133.599 189.622 131.666C189.622 129.733 192.189 126.166 194.122 126.166C196.055 126.166 199.448 127.733 199.448 129.666Z" fill="url(#paint10_radial_1_241)"/>
<path d="M197 115.666C197 117.599 197 123.166 191.5 123.166C189.567 123.166 184.5 121.166 185 116.166C185.5 111.166 189.567 111.666 191.5 111.666C193.433 111.666 197.5 111.666 197 115.666Z" fill="url(#paint11_radial_1_241)"/>
<path d="M197.5 103.166C197.5 105.651 195.5 107.666 191 107.666C187.962 107.666 185.5 105.651 185.5 103.166C185.5 100.68 187.962 98.6656 191 98.6656C194.038 98.6656 197.5 100.68 197.5 103.166Z" fill="url(#paint12_radial_1_241)"/>
<path d="M198.5 88.1656C198.5 90.0986 196.933 93.6656 195 93.6656C191.5 93.6656 190.5 90.0986 190.5 88.1656C190.5 86.2326 192 83.6656 195 83.6656C196.933 83.6656 198.5 86.2326 198.5 88.1656Z" fill="url(#paint13_linear_1_241)"/>
<path d="M206.5 75.1656C206.5 77.0986 205.5 80.1656 202 80.1656C199.5 80.1656 198.5 77.0986 198.5 75.1656C198.5 73.2326 200.067 71.6656 202 71.6656C205 71.6656 206.5 73.2326 206.5 75.1656Z" fill="url(#paint14_radial_1_241)"/>
<path d="M213.5 62.6656C213.5 64.8747 211.709 67.1656 209.5 67.1656C207.291 67.1656 205 64.8747 205 62.6656C205 60.4565 207.291 58.6656 209.5 58.6656C211 58.6656 213.5 60.4565 213.5 62.6656Z" fill="url(#paint15_radial_1_241)"/>
<circle cx="214.5" cy="50.6656" r="4" fill="url(#paint16_radial_1_241)"/>
<path d="M216.5 37.6656C216.5 39.5986 214.933 41.1656 213 41.1656C211.067 41.1656 209.5 39.5986 209.5 37.6656C209.5 35.7326 211.067 34.1656 213 34.1656C214.933 34.1656 216.5 35.7326 216.5 37.6656Z" fill="url(#paint17_radial_1_241)"/>
<path d="M211.066 27.12C211.066 29.053 209.499 30.62 207.566 30.62C205.633 30.62 204.066 29.053 204.066 27.12C204.066 25.187 205.633 23.62 207.566 23.62C209.499 23.62 211.066 25.187 211.066 27.12Z" fill="url(#paint18_radial_1_241)"/>
<path d="M205.5 17.6656C205.5 19.5986 202.933 21.6656 201 21.6656C199.067 21.6656 197.5 20.0986 197.5 18.1656C197.5 16.2326 200.067 14.1656 202 14.1656C203.933 14.1656 205.5 15.7326 205.5 17.6656Z" fill="url(#paint19_radial_1_241)"/>
<circle cx="196" cy="13.1656" r="3.5" fill="url(#paint20_radial_1_241)"/>
<path d="M224.5 165.666C220.524 164.063 217.833 157.832 216.5 154.666C216.862 154.666 218.891 157.213 219.5 157.256C220.576 157.333 221.902 157.397 223 157.166C225.394 156.661 226 154.166 228 154.166C230 154.166 232 157.166 232 158.666C232 160.166 233 163.666 232 164.666C231 165.666 227.6 166.915 224.5 165.666Z" fill="url(#paint21_radial_1_241)"/>
<path d="M214.5 154.166L208.5 144.166C210.167 144.166 212.268 144.88 214.5 144.166C216.512 143.522 217 142.166 219 141.166C221 140.166 223.5 144.166 224.5 145.666C225.5 147.166 223.5 152.166 221.5 153.166C219.9 153.966 216.167 154.166 214.5 154.166Z" fill="url(#paint22_radial_1_241)"/>
<path d="M204.5 140.166L200 129.666C201.667 129.666 203.768 130.38 206 129.666C208.012 129.022 208.5 128.324 210.5 127.324C212.5 126.324 214.5 132.666 215.5 134.166C216.5 135.666 214.5 139.824 212.5 140.824C210.9 141.624 206.167 140.166 204.5 140.166Z" fill="url(#paint23_radial_1_241)"/>
<path d="M205.5 6.6656C203.234 9.41573 196.5 8.1656 196.5 8.1656L205.5 16.1656C205.5 16.1656 211.344 16.7416 214 14.6656C216.271 12.89 217.53 11.0485 217.5 8.1656C217.448 3.23768 210.286 -2.50709 207 1.1656C205.515 2.82475 206.916 4.94728 205.5 6.6656Z" fill="url(#paint24_radial_1_241)"/>
<path d="M216.608 18.3869C214.022 20.8377 207.492 18.7693 207.492 18.7693L215.441 27.8148C215.441 27.8148 221.17 29.1048 224.061 27.3709C226.533 25.8879 228.009 24.2151 228.333 21.3504C228.887 16.4535 222.486 9.87198 218.773 13.1129C217.096 14.577 218.225 16.8556 216.608 18.3869Z" fill="url(#paint25_radial_1_241)"/>
<path d="M224.633 33.9138C221.738 35.3962 215.701 32.2281 215.701 32.2281L220 41.1656C220 41.1656 227.421 43.8891 230.501 43.0738C233.136 42.3764 234.831 41.3008 235.588 38.9742C236.882 34.9971 231.666 28.0794 227.553 29.9754C225.695 30.832 226.442 32.9876 224.633 33.9138Z" fill="url(#paint26_radial_1_241)"/>
<path d="M226.5 48.6656C223.605 50.148 220 44.6656 220 44.6656L219 55.9742C219 55.9742 227.419 61.481 230.5 60.6656C233.135 59.9682 235.243 58.3008 236 55.9742C237.294 51.9971 237.545 48.2306 234 47.1656C231.687 46.4707 228.309 47.7394 226.5 48.6656Z" fill="url(#paint27_radial_1_241)"/>
<path d="M222.383 64.3062C219.178 64.8635 217.099 58.2123 217.099 58.2123L212.791 68.7158C212.791 68.7158 219.199 76.4713 222.383 76.6061C225.106 76.7214 227.614 75.7539 229.027 73.7565C231.442 70.3421 233.183 66.1953 230 64.3062C228.014 63.1278 224.385 63.958 222.383 64.3062Z" fill="url(#paint28_radial_1_241)"/>
<path d="M213.55 78.3442C210.824 78.9108 209.242 73.2229 209.242 73.2229L205.317 82.4076C205.317 82.4076 210.532 88.9337 213.223 88.9652C215.524 88.9921 217.671 88.0899 218.92 86.3274C221.055 83.3147 222.639 79.6875 219.995 78.1412C218.347 77.1765 215.254 77.9902 213.55 78.3442Z" fill="url(#paint29_radial_1_241)"/>
<path d="M205.244 91.6929C202.518 92.2595 203 85.1656 203 85.1656L197.5 94.1656C197.5 94.1656 201.309 101.634 204 101.666C206.301 101.693 210.44 101.928 211.689 100.166C213.824 97.1529 214.332 93.0362 211.689 91.4898C210.04 90.5252 206.948 91.3388 205.244 91.6929Z" fill="url(#paint30_radial_1_241)"/>
<path d="M202.916 106.166C200.19 106.732 198.936 102.572 198.936 102.572L196 110.166C196 110.166 200.226 115.645 202.916 115.676C205.217 115.703 207.365 117.439 208.614 115.676C210.749 112.663 211.257 107.712 208.614 106.166C206.965 105.201 204.62 105.812 202.916 106.166Z" fill="url(#paint31_radial_1_241)"/>
<path d="M202.028 118.357C199.672 119.328 197.493 115.922 197.493 115.922L196.686 123.052C196.686 123.052 201.913 127.086 204.384 126.643C206.498 126.264 208.894 127.401 209.601 125.647C210.809 122.648 210.048 118.245 207.245 117.361C205.496 116.809 203.5 117.751 202.028 118.357Z" fill="url(#paint32_radial_1_241)"/>
<path fill-rule="evenodd" clip-rule="evenodd" d="M215.5 101.494V106.166C215.5 106.615 215.197 106.964 214.863 107.347C214.455 107.817 214 108.34 214 109.166C214 109.862 214.323 110.558 214.669 111.304C215.069 112.166 215.5 113.094 215.5 114.166C214.388 120.095 214.924 121.629 215.276 122.637C215.399 122.99 215.5 123.277 215.5 123.666C215.5 124.416 215.75 125.041 216 125.666C216.25 126.291 216.5 126.916 216.5 127.666C216.5 128.046 216.668 128.37 216.924 128.64H243.337V180.166C243.337 182.119 243.654 185.384 244.5 186.166C245.281 186.882 247.047 187.166 249 187.166H268.5C270.453 187.166 270.654 186.882 271.5 186.166C272.281 185.384 272.5 183.119 272.5 181.166L272 50.816C272 48.8631 272.281 44.8817 271.5 44.1656C270.654 43.3844 271.453 43.1656 269.5 43.1656L249 43.1656C247.047 43.1656 245.281 43.3844 244.5 44.1656C243.654 44.8817 243.337 48.8631 243.337 50.816V101.494H215.5Z" fill="#112131"/>
<g filter="url(#filter6_f_1_241)">
<path d="M251.544 97.1673H251.5V51.6656C261.27 56.7989 264.5 77.3323 264.5 91.9989C264.252 90.6318 263.321 88.5199 262.735 87.2494V179.003C262.735 180.762 262.585 181.994 262.285 182.698C262.008 183.343 261.523 183.666 260.83 183.666H253.449C252.757 183.666 252.26 183.343 251.96 182.698C251.682 181.994 251.544 180.762 251.544 179.003V97.1673Z" fill="#19344C"/>
</g>
<defs>
<filter id="filter0_f_1_241" x="28.5" y="32.6656" width="50" height="164" filterUnits="userSpaceOnUse" color-interpolation-filters="sRGB">
<feFlood flood-opacity="0" result="BackgroundImageFix"/>
<feBlend mode="normal" in="SourceGraphic" in2="BackgroundImageFix" result="shape"/>
<feGaussianBlur stdDeviation="8" result="effect1_foregroundBlur_1_241"/>
</filter>
<filter id="filter1_f_1_241" x="49.7" y="12.8656" width="118.652" height="103.6" filterUnits="userSpaceOnUse" color-interpolation-filters="sRGB">
<feFlood flood-opacity="0" result="BackgroundImageFix"/>
<feBlend mode="normal" in="SourceGraphic" in2="BackgroundImageFix" result="shape"/>
<feGaussianBlur stdDeviation="7.9" result="effect1_foregroundBlur_1_241"/>
</filter>
<filter id="filter2_f_1_241" x="68.2" y="24.3656" width="87.6" height="81.6" filterUnits="userSpaceOnUse" color-interpolation-filters="sRGB">
<feFlood flood-opacity="0" result="BackgroundImageFix"/>
<feBlend mode="normal" in="SourceGraphic" in2="BackgroundImageFix" result="shape"/>
<feGaussianBlur stdDeviation="5.65" result="effect1_foregroundBlur_1_241"/>
</filter>
<filter id="filter3_f_1_241" x="87.5941" y="102.766" width="61.3885" height="95.8358" filterUnits="userSpaceOnUse" color-interpolation-filters="sRGB">
<feFlood flood-opacity="0" result="BackgroundImageFix"/>
<feBlend mode="normal" in="SourceGraphic" in2="BackgroundImageFix" result="shape"/>
<feGaussianBlur stdDeviation="3.45" result="effect1_foregroundBlur_1_241"/>
</filter>
<filter id="filter4_f_1_241" x="100.5" y="109.666" width="34" height="85.383" filterUnits="userSpaceOnUse" color-interpolation-filters="sRGB">
<feFlood flood-opacity="0" result="BackgroundImageFix"/>
<feBlend mode="normal" in="SourceGraphic" in2="BackgroundImageFix" result="shape"/>
<feGaussianBlur stdDeviation="2.5" result="effect1_foregroundBlur_1_241"/>
</filter>
<filter id="filter5_f_1_241" x="103.088" y="117.766" width="28.1003" height="41.8" filterUnits="userSpaceOnUse" color-interpolation-filters="sRGB">
<feFlood flood-opacity="0" result="BackgroundImageFix"/>
<feBlend mode="normal" in="SourceGraphic" in2="BackgroundImageFix" result="shape"/>
<feGaussianBlur stdDeviation="2.45" result="effect1_foregroundBlur_1_241"/>
</filter>
<filter id="filter6_f_1_241" x="235.5" y="35.6656" width="45" height="164" filterUnits="userSpaceOnUse" color-interpolation-filters="sRGB">
<feFlood flood-opacity="0" result="BackgroundImageFix"/>
<feBlend mode="normal" in="SourceGraphic" in2="BackgroundImageFix" result="shape"/>
<feGaussianBlur stdDeviation="8" result="effect1_foregroundBlur_1_241"/>
</filter>
<linearGradient id="paint0_linear_1_241" x1="214" y1="114.879" x2="141" y2="114.879" gradientUnits="userSpaceOnUse">
<stop stop-color="#2A29B9"/>
<stop offset="1" stop-color="#131253"/>
</linearGradient>
<radialGradient id="paint1_radial_1_241" cx="0" cy="0" r="1" gradientUnits="userSpaceOnUse" gradientTransform="translate(143.479 152.078) rotate(90) scale(42.5876 14.7423)">
<stop stop-color="#2A29B9"/>
<stop offset="1" stop-color="#131253"/>
</radialGradient>
<linearGradient id="paint2_linear_1_241" x1="7.08678e-09" y1="101.863" x2="243.5" y2="101.666" gradientUnits="userSpaceOnUse">
<stop stop-color="#131253"/>
<stop offset="1" stop-color="#2A29B9"/>
</linearGradient>
<linearGradient id="paint3_linear_1_241" x1="103.5" y1="53.6656" x2="128" y2="111.666" gradientUnits="userSpaceOnUse">
<stop stop-color="#181969"/>
<stop offset="1" stop-color="#0C0C72"/>
</linearGradient>
<radialGradient id="paint4_radial_1_241" cx="0" cy="0" r="1" gradientUnits="userSpaceOnUse" gradientTransform="translate(117.002 148.612) rotate(90) scale(44.0537 29.022)">
<stop stop-color="#2A29B9"/>
<stop offset="1" stop-color="#1C1B7D"/>
</radialGradient>
<radialGradient id="paint5_radial_1_241" cx="0" cy="0" r="1" gradientUnits="userSpaceOnUse" gradientTransform="translate(226.542 185.936) rotate(90) scale(4.27022 4.04225)">
<stop stop-color="#2A29B9"/>
<stop offset="1" stop-color="#131253"/>
</radialGradient>
<linearGradient id="paint6_linear_1_241" x1="226" y1="171.666" x2="229.613" y2="180.382" gradientUnits="userSpaceOnUse">
<stop stop-color="#29848D"/>
<stop offset="1" stop-color="#131253"/>
</linearGradient>
<radialGradient id="paint7_radial_1_241" cx="0" cy="0" r="1" gradientUnits="userSpaceOnUse" gradientTransform="translate(217 162.166) rotate(-63.4349) scale(4.47214)">
<stop stop-color="#47E3F3"/>
<stop offset="1" stop-color="#122C53"/>
</radialGradient>
<radialGradient id="paint8_radial_1_241" cx="0" cy="0" r="1" gradientUnits="userSpaceOnUse" gradientTransform="translate(208.5 151.166) rotate(95.1944) scale(5.52268)">
<stop stop-color="#47E3F3"/>
<stop offset="1" stop-color="#131253"/>
</radialGradient>
<radialGradient id="paint9_radial_1_241" cx="0" cy="0" r="1" gradientUnits="userSpaceOnUse" gradientTransform="translate(200.5 139.666) rotate(87.7974) scale(6.50481 6.09826)">
<stop stop-color="#29848D"/>
<stop offset="1" stop-color="#1C1B6D"/>
</radialGradient>
<radialGradient id="paint10_radial_1_241" cx="0" cy="0" r="1" gradientUnits="userSpaceOnUse" gradientTransform="translate(196 129.166) rotate(102.704) scale(6.66312 6.89202)">
<stop stop-color="#29848D"/>
<stop offset="1" stop-color="#131253"/>
</radialGradient>
<radialGradient id="paint11_radial_1_241" cx="0" cy="0" r="1" gradientUnits="userSpaceOnUse" gradientTransform="translate(194 115.166) rotate(110.532) scale(8.54265 8.96026)">
<stop stop-color="#29848D"/>
<stop offset="1" stop-color="#131253"/>
</radialGradient>
<radialGradient id="paint12_radial_1_241" cx="0" cy="0" r="1" gradientUnits="userSpaceOnUse" gradientTransform="translate(193 101.166) rotate(102.995) scale(6.67083)">
<stop stop-color="#46A8B2"/>
<stop offset="1" stop-color="#131253"/>
</radialGradient>
<linearGradient id="paint13_linear_1_241" x1="194.5" y1="83.6656" x2="194.5" y2="93.6656" gradientUnits="userSpaceOnUse">
<stop stop-color="#41C9D7"/>
<stop offset="1" stop-color="#131253"/>
</linearGradient>
<radialGradient id="paint14_radial_1_241" cx="0" cy="0" r="1" gradientUnits="userSpaceOnUse" gradientTransform="translate(202.5 75.9156) rotate(90) scale(4.25 4)">
<stop stop-color="#47E3F3"/>
<stop offset="1" stop-color="#1D435D"/>
</radialGradient>
<radialGradient id="paint15_radial_1_241" cx="0" cy="0" r="1" gradientUnits="userSpaceOnUse" gradientTransform="translate(209.25 62.9156) rotate(90) scale(4.25)">
<stop stop-color="#41C9D7"/>
<stop offset="1" stop-color="#16364C"/>
</radialGradient>
<radialGradient id="paint16_radial_1_241" cx="0" cy="0" r="1" gradientUnits="userSpaceOnUse" gradientTransform="translate(214.5 50.6656) rotate(90) scale(4)">
<stop stop-color="#47E3F3"/>
<stop offset="1" stop-color="#22436D"/>
</radialGradient>
<radialGradient id="paint17_radial_1_241" cx="0" cy="0" r="1" gradientUnits="userSpaceOnUse" gradientTransform="translate(213 37.6656) rotate(90) scale(3.5)">
<stop stop-color="#47E3F3"/>
<stop offset="1" stop-color="#29548D"/>
</radialGradient>
<radialGradient id="paint18_radial_1_241" cx="0" cy="0" r="1" gradientUnits="userSpaceOnUse" gradientTransform="translate(207.566 27.12) rotate(90) scale(3.5)">
<stop stop-color="#47E3F3"/>
<stop offset="1" stop-color="#296C8D"/>
</radialGradient>
<radialGradient id="paint19_radial_1_241" cx="0" cy="0" r="1" gradientUnits="userSpaceOnUse" gradientTransform="translate(201.5 17.9156) rotate(90) scale(3.75 4)">
<stop stop-color="#47E3F3"/>
<stop offset="1" stop-color="#29778D"/>
</radialGradient>
<radialGradient id="paint20_radial_1_241" cx="0" cy="0" r="1" gradientUnits="userSpaceOnUse" gradientTransform="translate(196 13.1656) rotate(90) scale(3.5)">
<stop stop-color="#47E3F3"/>
<stop offset="1" stop-color="#29848D"/>
</radialGradient>
<radialGradient id="paint21_radial_1_241" cx="0" cy="0" r="1" gradientUnits="userSpaceOnUse" gradientTransform="translate(221.5 158.166) rotate(6.1155) scale(14.0801 16.9143)">
<stop stop-color="#29848D"/>
<stop offset="1" stop-color="#131253"/>
</radialGradient>
<radialGradient id="paint22_radial_1_241" cx="0" cy="0" r="1" gradientUnits="userSpaceOnUse" gradientTransform="translate(216.633 146.626) rotate(6.73451) scale(8.1895 10.1235)">
<stop stop-color="#29848D"/>
<stop offset="1" stop-color="#131253"/>
</radialGradient>
<radialGradient id="paint23_radial_1_241" cx="0" cy="0" r="1" gradientUnits="userSpaceOnUse" gradientTransform="translate(202.5 132.166) rotate(45) scale(12.0208 13.6876)">
<stop stop-color="#33A3AE" stop-opacity="0.83"/>
<stop offset="1" stop-color="#131253"/>
</radialGradient>
<radialGradient id="paint24_radial_1_241" cx="0" cy="0" r="1" gradientUnits="userSpaceOnUse" gradientTransform="translate(207 8.11948) rotate(90) scale(8.11948 10.5003)">
<stop stop-color="#47E3F3"/>
<stop offset="1" stop-color="#29848D"/>
</radialGradient>
<radialGradient id="paint25_radial_1_241" cx="0" cy="0" r="1" gradientUnits="userSpaceOnUse" gradientTransform="translate(217.919 20.0141) rotate(97.0602) scale(8.11948 10.5003)">
<stop stop-color="#47E3F3"/>
<stop offset="1" stop-color="#296F8D"/>
</radialGradient>
<radialGradient id="paint26_radial_1_241" cx="0" cy="0" r="1" gradientUnits="userSpaceOnUse" gradientTransform="translate(225.619 35.6767) rotate(108.738) scale(7.0095 10.5003)">
<stop stop-color="#47E3F3"/>
<stop offset="1" stop-color="#29588D"/>
</radialGradient>
<radialGradient id="paint27_radial_1_241" cx="0" cy="0" r="1" gradientUnits="userSpaceOnUse" gradientTransform="translate(227.245 52.547) rotate(108.738) scale(7.26963 9.39261)">
<stop stop-color="#47E3F3"/>
<stop offset="1" stop-color="#2E6A93"/>
</radialGradient>
<radialGradient id="paint28_radial_1_241" cx="0" cy="0" r="1" gradientUnits="userSpaceOnUse" gradientTransform="translate(221.839 67.671) rotate(125.986) scale(7.53701 9.39261)">
<stop stop-color="#47E3F3"/>
<stop offset="1" stop-color="#204B69"/>
</radialGradient>
<radialGradient id="paint29_radial_1_241" cx="0" cy="0" r="1" gradientUnits="userSpaceOnUse" gradientTransform="translate(213 81.2642) rotate(125.986) scale(6.65409 7.76577)">
<stop stop-color="#47E3F3"/>
<stop offset="1" stop-color="#1A3F58"/>
</radialGradient>
<radialGradient id="paint30_radial_1_241" cx="0" cy="0" r="1" gradientUnits="userSpaceOnUse" gradientTransform="translate(202.5 91.1656) rotate(94.978) scale(9.32028 11.2363)">
<stop stop-color="#41C9D7"/>
<stop offset="1" stop-color="#226971"/>
</radialGradient>
<radialGradient id="paint31_radial_1_241" cx="0" cy="0" r="1" gradientUnits="userSpaceOnUse" gradientTransform="translate(202 107.666) rotate(61.5044) scale(19.9123 26.5229)">
<stop stop-color="#46A8B2"/>
<stop offset="1" stop-color="#131253"/>
</radialGradient>
<radialGradient id="paint32_radial_1_241" cx="0" cy="0" r="1" gradientUnits="userSpaceOnUse" gradientTransform="translate(200.204 119.918) rotate(55.008) scale(12.2066 17.8432)">
<stop stop-color="#29848D"/>
<stop offset="1" stop-color="#131253"/>
</radialGradient>
</defs>
</svg>
